<svg width="630" height="1219" fill="none" xmlns="http://www.w3.org/2000/svg"><path opacity=".024" d="M892.383 1208.11c-8.511 0-16.682-.35-24.853-1.03-85.115-6.46-129.034-61.96-164.442-106.56-30.301-38.47-54.473-68.77-93.286-60.6-47.323 9.87-96.349 24.17-143.333 38.13-124.948 36.77-243.087 71.5-326.499 25.19-44.26-24.51-74.901-69.45-93.967-137.201C10.936 843.134 6.851 757.338 32.725 687.885c24.173-65.368 73.199-114.054 135.503-175.336 32.343-32.003 68.772-68.092 107.244-111.671 74.22-84.774 68.432-192.018 62.985-295.518l-.681-9.873c-4.085-80.689-5.107-146.397 23.832-199.168 33.706-61.283 103.159-94.988 218.575-105.883C871.275-236.8 893.745-69.635 917.577 107.403c2.043 14.299 4.085 29.279 6.128 44.26 9.873 68.432 23.832 139.928 58.559 198.487 9.192 15.321 19.746 31.322 31.326 46.983 50.72 67.751 116.77 126.651 180.44 183.167 117.12 104.18 218.57 194.402 184.19 305.391-39.84 130.059-143.68 208.019-223.34 250.919-84.1 45.28-182.149 71.5-262.497 71.5zm-270.324-171.26c33.024 0 56.176 29.28 82.391 62.65 35.067 44.6 78.986 99.75 163.08 106.22 83.752 6.13 193.72-20.77 286.33-70.13 79.66-42.56 182.82-120.52 222.66-249.899 34.04-110.308-66.73-199.849-183.51-303.689-64.01-56.856-130.06-115.415-180.79-183.507-11.57-15.661-22.125-31.663-31.318-46.983-34.727-58.899-48.685-130.396-58.899-199.168-2.043-14.64-4.086-29.62-6.128-44.26-11.916-89.881-23.492-174.315-68.092-234.576-50.388-67.751-135.162-93.286-267.26-81.029-114.734 10.895-183.848 44.26-217.212 104.861-28.599 52.43-27.918 117.799-23.492 198.147l.34 9.873c5.448 103.84 10.895 211.425-63.665 296.54-38.472 43.919-74.901 80.007-107.245 112.011C43.279 638.178-25.833 706.61 47.365 965.699c19.066 67.411 49.367 112.011 93.286 136.181 83.072 45.96 200.53 11.24 325.138-25.53 47.323-13.96 96.009-28.26 143.673-38.13 4.426-.68 8.852-1.37 12.597-1.37z" fill="url(#paint0_linear)"/><path opacity=".049" d="M888.297 1197.55c-8.171 0-16.001-.34-23.832-.68-83.072-6.13-125.969-60.26-160.696-103.84-29.62-37.45-53.112-67.07-90.903-58.9-46.302 9.87-93.966 23.83-139.928 37.11-122.225 35.75-237.64 69.8-319.35 24.51-43.238-23.83-73.199-67.75-91.924-133.796-34.386-120.182-38.472-204.275-13.618-272.026 23.491-64.347 71.496-112.011 132.098-172.272 31.322-30.982 66.73-66.39 103.84-108.947 71.836-82.731 67.07-187.252 61.963-288.369l-.34-10.554c-4.086-78.646-4.767-142.992 23.832-194.742 33.365-59.921 101.456-92.945 214.488-103.499 284.624-26.897 307.094 136.864 330.926 310.157 2.043 13.959 3.745 28.258 6.128 42.558 9.874 67.07 23.492 136.864 57.538 194.401 8.852 14.981 19.065 30.642 30.641 45.962 49.37 66.049 113.37 123.587 175.34 178.741 114.39 102.478 213.46 190.657 179.42 299.944-39.15 126.992-140.27 203.252-218.24 244.792-82.73 43.58-178.737 69.45-257.383 69.45zm-263.515-166.82c32.344 0 54.814 28.6 80.689 60.94 34.386 43.24 77.284 97.03 159.335 103.16 82.05 6.13 188.954-20.43 279.514-68.77 77.63-41.54 178.4-117.46 217.55-243.773 33.71-107.926-64.68-196.104-178.74-297.902-61.96-55.494-125.97-112.691-175.67-179.081-11.578-15.32-21.792-30.981-30.643-45.962-34.046-57.537-48.005-127.671-57.878-195.082-2.043-14.3-4.086-28.599-6.129-42.558-11.916-87.838-23.491-170.57-67.07-229.469-49.366-66.049-132.438-91.243-261.813-78.986C471.576-176.199 403.825-143.515 370.8-84.275c-28.258 51.069-27.577 115.415-23.832 193.721l.341 10.554c4.766 101.457 9.873 206.318-62.304 289.73-37.11 42.558-72.518 77.965-103.84 108.947C58.6 640.561-9.151 707.972 63.367 961.273c18.725 65.707 48.345 109.287 91.242 132.777 81.029 44.6 196.104 10.9 317.989-24.85 45.961-13.62 93.626-27.58 140.268-37.11 4.086-1.02 8.171-1.36 11.916-1.36z" fill="url(#paint1_linear)"/><path opacity=".073" d="M884.211 1187c-7.83 0-15.32-.34-22.81-.68-81.029-5.79-122.906-58.56-156.611-101.12-28.939-36.43-52.09-65.37-88.86-57.54-45.281 9.54-91.583 23.15-136.524 36.43-119.16 35.07-231.852 68.09-311.86 24.17-42.217-23.15-71.496-66.04-89.88-130.392C43.96 840.41 39.533 758.36 63.365 691.63c22.81-62.985 69.454-109.968 128.693-169.208 30.301-30.301 64.347-64.687 100.095-105.883 69.794-81.029 65.368-182.826 60.942-281.559l-.34-11.235c-3.745-76.944-4.086-139.588 24.172-190.316 32.684-58.559 99.414-90.903 210.063-101.457 278.495-26.215 300.965 133.8 324.457 303.349 2.043 13.618 3.745 27.236 5.788 41.195 9.873 65.368 23.491 133.8 56.516 189.976 8.852 14.64 18.725 29.96 29.958 44.94 48.01 64.347 109.97 120.523 170.23 174.315 111.67 100.436 208.02 187.252 174.66 294.497-38.48 123.586-137.21 198.146-213.47 239.006-80.35 42.55-173.975 67.75-250.919 67.75zm-256.705-162.4c31.322 0 53.452 27.92 78.646 59.24 33.705 42.21 75.241 94.65 155.249 100.43 80.007 5.79 184.529-20.08 272.709-67.41 75.92-40.51 173.97-114.73 212.44-237.978 33.03-105.883-62.98-192.359-173.97-292.454-60.26-54.133-122.22-109.968-170.23-174.655-11.235-14.98-21.108-30.301-29.96-44.94-33.365-56.517-46.983-124.949-56.516-190.657-2.043-13.619-4.085-27.577-5.788-41.196-11.916-85.795-23.151-166.824-66.389-224.362-48.345-64.687-129.715-89.2-256.025-77.284-109.968 10.554-176.357 42.217-208.701 100.435-27.918 50.048-27.577 112.692-23.832 189.295l.34 11.235c4.426 99.074 8.852 201.211-61.282 282.921-35.748 41.536-70.135 75.582-100.435 105.883C73.92 643.285 8.212 709.334 79.368 956.847c18.384 64.003 47.323 106.563 89.2 129.373 79.327 43.58 191.678 10.56 310.498-24.17 44.94-13.28 91.243-26.9 136.524-36.43 4.085-.68 8.171-1.02 11.916-1.02z" fill="url(#paint2_linear)"/><path opacity=".098" d="M880.467 1176.44c-7.49 0-14.64-.34-21.789-.68-78.987-5.79-119.842-57.2-152.866-98.39-28.258-35.41-50.728-63.33-86.817-55.84-43.919 9.2-89.2 22.47-132.779 35.41-116.437 34.05-226.064 66.39-304.029 23.49-41.196-22.81-70.135-64.34-88.18-126.988-70.134-243.087-5.787-308.455 110.99-426.594 28.939-29.279 61.964-62.644 96.35-102.818 68.092-79.327 64.006-179.422 59.921-276.112l-.341-10.214c-3.064-75.241-3.404-136.524 24.513-185.89 32.344-57.197 97.371-88.86 205.637-99.074 272.367-25.875 294.497 130.736 317.988 296.199 1.703 12.938 3.746 26.556 5.788 39.493 9.533 64.006 23.152 130.736 55.495 185.55 8.512 14.299 18.385 29.28 29.28 43.919 46.642 62.645 106.562 117.118 164.782 169.889 108.95 98.733 202.91 183.848 169.89 288.709-37.79 120.522-134.14 193.381-208.36 233.211-78.99 41.88-170.913 66.73-245.473 66.73zM630.23 1018.47c30.641 0 52.431 26.9 76.944 57.88 32.684 40.85 73.539 91.92 151.504 97.71 77.965 5.45 179.762-19.75 265.902-65.71 73.88-39.49 169.88-112.01 207.34-231.851 32.34-103.84-60.95-188.614-169.21-286.666-58.22-52.771-118.48-107.245-165.125-170.229-10.895-14.64-20.768-29.62-29.28-43.92-32.343-55.154-45.962-122.224-55.494-186.23-2.043-13.278-4.086-26.556-5.788-39.494-11.916-83.752-23.151-163.08-65.368-219.255-47.664-62.985-126.991-87.157-250.578-75.241C483.492-134.322 418.805-103 386.802-46.484 359.225 2.2 359.566 63.484 362.63 138.385l.34 10.214c4.086 97.03 8.512 197.466-60.261 277.473-34.386 40.174-67.411 73.539-96.35 102.819C89.922 646.689 25.916 711.717 95.71 953.783c18.044 62.307 46.643 103.497 87.158 125.967 77.284 42.56 186.911 10.56 302.667-23.49 43.579-12.94 88.86-26.21 133.119-35.41 3.745-2.04 7.831-2.38 11.576-2.38z" fill="url(#paint3_linear)"/><path opacity=".122" d="M876.381 1165.55c-7.149 0-14.299-.34-21.108-.68-76.944-5.45-116.777-55.5-149.121-95.67-27.577-34.39-49.366-61.62-84.774-54.48-42.898 8.86-86.817 21.79-129.374 34.39-113.373 33.37-220.617 64.69-296.54 22.81-40.174-22.13-68.432-62.64-86.136-123.925-69.113-237.64-6.468-301.646 107.245-417.742 27.917-28.599 59.58-60.943 92.945-99.755 66.049-77.624 62.304-174.996 58.559-269.303l-.341-10.554c-2.723-73.198-2.723-133.46 24.513-181.464 31.663-55.835 95.669-86.817 201.211-96.69C859.359-152.707 881.488.159 904.98 161.876c1.702 12.597 3.745 25.535 5.788 38.132 9.533 62.644 22.811 127.672 54.133 181.464a487.692 487.692 0 0028.258 42.898c45.281 60.942 103.501 114.054 159.671 165.463 105.89 96.69 197.47 180.102 165.13 283.261-37.11 117.459-130.74 188.276-203.26 227.086-75.92 41.2-165.46 65.37-238.319 65.37zM632.613 1012c29.961 0 51.069 26.22 75.242 56.18 32.003 39.83 71.836 89.2 147.759 94.64 75.922 5.11 175.336-19.4 259.086-64.34 71.84-38.47 165.47-109.289 202.23-226.067 32.01-101.797-59.24-184.869-164.44-281.218-56.51-51.41-114.73-104.521-160.012-165.804-10.554-14.299-20.087-28.939-28.599-43.238-31.662-53.792-44.94-119.501-54.473-182.145-2.043-12.597-3.745-25.535-5.788-38.132-11.916-82.05-23.151-159.334-64.687-214.148-46.643-61.623-124.608-85.115-245.13-73.539-104.861 10.214-168.527 40.515-199.849 96.01-26.896 47.663-26.896 107.244-24.173 180.442l.341 10.554c3.745 94.648 7.49 192.7-59.24 270.665-33.365 38.812-65.028 71.156-92.945 99.754C104.562 647.37 42.258 711.036 111.031 947.655c17.704 60.605 45.621 100.775 85.455 122.565 75.582 41.54 182.145 10.21 295.177-22.81 42.558-12.6 86.477-25.54 129.375-34.39 4.085-.68 8.171-1.02 11.575-1.02z" fill="url(#paint4_linear)"/><path opacity=".146" d="M872.295 1154.99c-6.809 0-13.618-.34-20.087-.68-74.901-5.44-113.713-53.79-145.035-92.6-26.896-33.37-48.345-59.92-82.731-52.77-41.536 8.85-84.434 21.11-125.63 33.36-72.177 21.11-142.311 41.54-203.253 41.54-76.944 0-138.908-33.03-170.23-139.93-67.751-231.853-6.809-294.837 103.5-408.891 26.896-27.577 57.197-59.24 89.2-96.69 64.346-75.922 60.942-170.91 57.537-262.834l-.34-10.895c-2.383-71.496-2.043-130.055 24.853-177.038 31.322-54.474 93.626-84.774 197.126-94.648 259.77-24.853 281.899 124.608 305.051 282.581 1.702 11.916 3.745 24.513 5.447 36.429 9.533 60.942 22.47 124.608 53.112 177.038 8.17 13.619 17.363 27.918 27.577 41.877 43.918 59.239 100.098 110.989 154.568 161.036 103.16 94.988 192.36 176.698 160.36 277.474-36.09 114.394-127.68 183.511-198.15 221.301-74.22 40.85-161.719 64.34-232.875 64.34zm-236.959-149.12c29.28 0 49.707 25.54 73.199 54.48 30.981 38.47 69.794 86.81 143.673 91.92 73.88 5.11 170.572-19.07 252.282-62.98 70.13-37.45 161.03-106.228 197.12-220.281 31.67-99.755-57.19-181.124-159.67-275.431-54.47-50.048-110.99-101.797-154.57-161.377-10.214-14.3-19.746-28.259-27.917-42.217-30.642-52.771-43.919-116.437-53.452-177.72-2.043-12.256-3.745-24.513-5.448-36.769-11.916-80.008-23.151-155.59-63.665-209.042-45.622-60.26-121.885-83.072-239.343-71.836C495.067-95.51 432.763-65.89 402.122-11.757c-26.556 46.642-26.896 104.86-24.513 176.017l.34 10.894c3.405 92.265 6.469 187.933-57.877 264.196-32.004 37.451-62.304 68.773-89.201 96.69-109.968 113.714-170.91 176.017-103.159 406.848 30.982 105.542 92.265 138.222 168.868 138.222 60.601 0 130.395-20.42 202.232-41.53 41.536-12.26 84.093-24.51 125.97-33.37 3.404 0 7.15-.34 10.554-.34z" fill="url(#paint5_linear)"/><path opacity=".171" d="M868.891 1144.44c-6.81 0-13.278-.34-19.407-.68-72.858-5.11-110.649-52.09-141.29-89.88-26.215-32.69-46.983-58.221-80.348-51.07-40.515 8.51-82.051 20.77-122.225 32.34-158.994 46.65-309.136 90.56-363.95-95.326-66.73-226.064-7.49-288.028 100.095-400.039 25.875-26.896 54.814-57.197 85.455-93.626 62.304-73.879 59.24-166.484 56.516-256.365l-.34-11.235c-2.043-69.794-1.703-126.65 24.853-172.613 30.641-53.111 91.924-82.731 192.7-92.264C854.251-110.49 876.381 35.226 899.872 189.454c1.703 11.575 3.405 23.491 5.448 35.067 9.532 59.58 22.47 121.543 52.09 172.612 8.171 13.619 17.023 27.577 26.896 40.855 42.554 57.878 97.034 108.606 149.804 157.292 100.09 92.605 186.57 172.953 155.25 271.345-35.41 111.33-124.61 178.745-193.04 215.515-73.2 39.15-158.316 62.3-227.429 62.3zM638.06 999.745c28.598 0 48.685 24.855 71.496 53.115 30.301 37.45 68.092 84.09 139.928 89.2 71.837 4.76 166.146-18.73 245.476-61.29 68.09-36.77 156.61-103.496 192.01-214.145 30.99-97.371-55.15-177.038-154.56-269.302-52.78-49.026-107.59-99.414-149.806-157.632-9.874-13.619-19.066-27.237-26.897-41.196-29.96-51.409-42.897-113.713-52.43-173.293-2.043-11.576-3.745-23.492-5.447-35.068C885.914 112.169 874.678 38.29 835.185-13.8c-44.6-58.56-119.16-80.689-233.895-69.794-100.095 9.533-160.696 38.812-190.997 91.243-26.215 45.621-26.556 102.137-24.513 171.591l.34 11.235c2.724 89.881 5.788 183.167-56.856 257.727-30.641 36.089-59.921 66.73-85.796 93.626-106.904 111.67-165.803 172.953-99.414 397.996 54.133 183.846 203.595 140.266 361.567 93.966 40.174-11.92 81.71-23.83 122.225-32.34 3.064-1.36 6.469-1.705 10.214-1.705z" fill="url(#paint6_linear)"/><path opacity=".195" d="M864.805 1133.89c-6.468 0-12.596-.35-18.725-.69-70.815-4.76-107.925-50.38-137.545-87.15-25.534-31.67-45.962-56.519-78.305-49.71-39.153 8.17-79.668 20.09-118.82 31.32-154.568 45.28-300.625 87.84-354.418-92.602-65.368-219.937-8.171-280.538 95.669-390.166 24.854-26.215 53.112-55.835 82.391-91.243 60.261-71.836 57.878-162.058 55.495-249.215l-.341-12.257c-1.702-68.091-1.021-123.586 25.194-168.186 30.301-51.75 89.881-80.689 188.274-90.222C850.847-90.063 872.636 52.25 896.128 202.391c1.702 11.235 3.404 22.47 5.447 33.705 9.533 57.878 22.13 118.48 51.069 168.527 7.83 13.619 16.682 26.897 26.215 40.174 40.851 56.176 93.631 105.543 144.691 152.866 97.38 90.903 181.47 169.208 150.49 265.558-34.73 108.266-121.21 173.629-187.6 209.379-71.49 38.82-154.224 61.29-221.635 61.29zM640.784 993.276c27.577 0 47.324 24.174 69.453 51.414 29.62 36.42 66.39 81.71 136.184 86.13 69.794 4.77 161.379-18.38 238.659-59.92 66.05-35.75 152.19-100.775 186.91-208.36 30.65-95.328-53.11-173.293-149.8-263.515-51.07-47.664-103.5-96.69-144.693-153.206-9.533-13.278-18.384-26.556-26.215-40.174-29.279-50.388-41.876-110.99-51.409-169.208-1.703-11.235-3.405-22.47-5.448-33.706-11.916-76.262-22.81-148.099-61.963-199.168-43.919-57.197-116.437-78.646-228.448-68.091-97.711 9.532-156.951 37.79-186.571 89.2-25.875 44.26-26.556 99.754-24.853 167.165l.34 12.256c2.383 87.498 4.767 178.06-55.835 250.578-29.62 35.407-57.878 65.027-82.731 91.243-103.5 109.287-160.356 169.548-95.329 388.463 53.112 178.743 198.487 136.183 352.034 91.243 39.153-11.58 79.327-23.15 118.82-31.663 3.745-.34 7.15-.681 10.895-.681z" fill="url(#paint7_linear)"/><path opacity=".22" d="M860.72 1123.33c-6.128 0-11.916-.34-17.704-.68-68.772-4.43-104.861-48.69-133.8-84.09-24.853-30.64-44.6-54.817-76.263-48.007-38.131 8.171-77.284 19.407-115.075 30.637-150.482 43.92-292.453 85.46-345.224-89.877-64.347-214.489-8.852-273.729 91.923-381.314 23.832-25.194 50.729-54.133 78.987-88.178 58.218-70.135 56.175-157.633 54.133-242.407l-.341-12.597c-1.362-66.049-.34-120.182 25.194-163.76 29.62-50.388 88.179-78.306 183.848-87.839C847.102-67.933 869.232 70.293 892.383 217.031c1.702 10.554 3.404 21.449 5.107 32.003 10.894 65.368 23.491 118.139 50.047 164.101 7.49 13.278 16.342 26.215 25.535 39.153 39.488 54.473 90.218 102.478 139.248 148.44 94.31 88.859 176.02 165.803 145.72 260.11-34.05 105.201-118.14 168.872-182.49 203.592-68.43 36.77-149.121 58.9-214.83 58.9zM643.167 987.148c26.896 0 45.962 23.492 67.751 50.052 28.599 35.06 64.347 78.98 132.098 83.41 68.092 4.42 156.952-18.05 231.854-58.56 64.35-34.73 147.76-98.053 181.8-202.574 29.96-92.945-51.07-169.548-145.03-257.727-49.03-46.302-99.76-93.967-139.59-148.78-9.192-12.938-18.044-25.875-25.534-39.153-28.258-49.026-40.855-108.266-50.388-164.782-1.702-10.554-3.405-21.449-5.107-32.003-11.916-74.22-22.811-144.355-60.942-194.061-42.898-55.836-113.713-76.604-222.66-66.05-94.988 9.193-153.206 36.77-182.486 86.817-25.534 43.239-26.215 97.031-24.853 162.74l.34 12.597c2.043 85.114 4.086 173.293-54.814 243.768-28.258 34.046-55.154 62.644-78.986 88.179-100.435 107.244-155.589 166.143-91.583 379.27 28.939 96.689 85.795 126.649 156.27 126.649 55.835 0 120.182-18.72 186.231-38.13 37.791-10.89 76.944-22.47 115.415-30.641a51.966 51.966 0 0110.214-1.021z" fill="url(#paint8_linear)"/><path opacity=".244" d="M856.975 1112.78c-5.788 0-11.235-.34-17.023-.68-66.73-4.43-101.797-46.99-129.715-81.37-24.172-29.62-43.578-53.115-74.22-46.646-37.11 7.83-74.9 18.726-111.67 29.616-146.057 42.56-283.942 82.73-335.692-87.154-63.325-208.701-9.533-266.919 88.179-372.461 22.81-24.513 48.345-52.431 75.241-85.115 56.176-68.092 54.473-153.206 53.112-235.597 0-4.426 0-8.852-.341-12.938-1.021-64.346 0-116.777 25.534-159.334 29.28-49.367 86.136-76.263 179.763-85.455 234.575-22.811 256.365 112.01 279.516 255.003l5.107 30.641c10.554 63.666 23.151 115.075 49.026 159.675 7.49 12.938 15.661 25.875 24.853 38.132 38.135 52.771 87.155 99.413 134.145 144.013 91.58 87.158 170.91 162.059 140.61 254.323-33.37 102.138-114.74 163.757-177.38 197.807-66.733 36.09-145.379 57.54-209.045 57.54zM645.891 981.019c26.215 0 44.94 22.471 66.049 48.341 27.917 34.05 62.644 76.27 128.352 80.69 66.049 4.09 152.185-17.7 225.048-56.85 62.3-33.71 143.67-94.991 176.35-196.448 29.62-90.902-49.02-165.463-140.27-252.28-47.32-44.94-96.01-91.242-134.477-144.354-8.852-12.597-17.363-25.194-24.853-38.131-25.875-44.941-38.472-96.691-49.026-160.356l-5.107-30.642c-11.576-72.517-22.811-140.609-60.262-188.954-41.876-54.133-110.989-74.56-217.212-64.347-206.658 20.428-204.956 133.46-203.254 243.088 0 4.426 0 8.852.341 12.937 1.362 82.732 3.064 168.187-53.452 236.959-26.896 32.684-52.771 60.602-75.582 85.115-97.371 105.202-150.823 163.08-87.838 370.419C241.767 1094.05 378.631 1054.22 523.666 1012c36.77-10.55 74.56-21.788 111.67-29.619 3.745-1.021 7.15-1.362 10.555-1.362z" fill="url(#paint9_linear)"/><path opacity=".268" d="M852.889 1101.88c-5.447 0-10.894 0-16.001-.34-64.687-4.08-98.733-45.28-125.97-78.64-23.491-28.603-42.217-51.413-71.836-44.945-35.749 7.491-72.518 18.385-107.926 28.595-141.971 41.2-275.771 80.35-326.159-84.43-62.304-202.913-10.214-260.11 84.434-363.609 21.449-23.492 45.962-50.388 71.836-81.71 54.133-66.39 53.112-148.781 52.091-228.789 0-4.426 0-9.192-.341-13.618-1.362-107.244-2.383-218.234 200.871-238.32 228.447-22.13 250.237 108.946 273.388 248.193 1.702 9.533 3.064 19.407 4.766 28.939 10.554 61.623 22.811 112.011 48.005 155.59a363.823 363.823 0 0024.172 37.11c36.771 51.069 83.751 96.35 129.031 139.588 88.86 85.114 165.47 158.654 135.85 248.875-32.35 99.074-111.67 158.991-172.28 192.021-65.704 34.72-141.967 55.49-203.931 55.49zM648.614 974.551c25.535 0 43.579 21.789 64.007 46.639 27.236 33.03 60.942 73.88 124.607 77.97 64.007 4.08 147.759-17.36 218.232-55.5 60.26-32.68 139.25-92.26 171.25-190.653 28.94-88.86-46.98-161.718-135.5-246.492-45.28-43.579-92.264-88.519-129.374-139.928-8.852-12.257-16.682-24.513-24.172-37.451-25.194-43.919-37.451-94.307-48.005-156.27-1.702-9.533-3.405-19.406-4.766-28.939-11.576-70.475-22.811-136.864-59.24-183.848C784.457 7.31 717.387-12.438 613.888-2.565 412.677 17.522 413.698 127.49 415.06 233.713c0 4.426 0 8.852.34 13.619 1.022 80.348 2.383 163.42-52.43 230.149-25.875 31.323-50.388 58.219-71.837 82.051-93.967 103.159-146.057 159.675-84.093 361.567 49.707 162.741 182.826 123.931 323.435 83.071 35.408-10.213 72.518-21.108 108.266-28.598 3.405-.681 6.469-1.021 9.873-1.021z" fill="url(#paint10_linear)"/><path opacity=".293" d="M849.144 1091.33c-5.107 0-10.214 0-14.98-.34-62.644-3.75-95.669-43.92-122.225-75.92-22.81-27.582-40.855-49.371-69.794-43.583-34.726 7.149-70.134 17.704-104.52 27.577-137.546 39.836-267.26 77.626-316.627-81.71-60.942-197.466-10.554-253.301 80.689-354.758 20.427-22.811 43.919-48.686 68.092-78.646 52.09-64.347 51.409-144.695 50.728-221.979v-13.959c-.681-104.18-1.362-212.105 196.785-231.852C839.271-5.63 861.06 122.043 884.211 257.545c1.703 9.193 3.065 18.385 4.767 27.237 10.554 59.921 22.47 108.606 46.643 151.163 7.149 12.257 14.98 24.513 23.151 36.089 35.408 49.707 80.348 93.286 123.928 135.162 85.79 83.412 160.01 155.249 131.08 243.087-31.67 96.01-108.61 153.887-167.17 185.887-63.325 34.73-137.545 55.16-197.466 55.16zM651.338 968.423c24.853 0 42.217 21.108 62.304 45.277 26.215 31.67 58.899 71.16 120.522 74.9 61.964 3.75 142.993-17.02 211.426-54.13 58.56-31.66 134.82-89.539 166.14-184.868 28.6-86.476-45.28-157.972-130.39-240.704-43.58-42.217-88.522-85.795-124.27-135.502-8.512-11.916-16.342-23.832-23.492-36.429-24.513-42.898-36.429-91.583-46.983-151.845-1.703-9.192-3.064-18.384-4.767-27.236-11.575-68.432-22.81-133.12-58.559-178.741C783.095 28.076 717.727 8.67 617.292 18.543 421.528 38.29 421.869 144.853 422.55 248.012v13.959c.681 77.965 1.362 158.654-51.409 223.341-24.514 29.96-47.665 55.835-68.092 78.646-90.903 101.116-140.95 156.611-80.348 352.715 48.685 157.287 177.719 119.837 313.902 80.008 34.387-9.874 70.135-20.428 104.521-27.578 3.745-.34 6.809-.68 10.214-.68z" fill="url(#paint11_linear)"/><path opacity=".317" d="M845.399 1080.77c-5.107 0-9.873 0-14.64-.34-60.601-3.74-92.604-42.21-118.479-72.85-22.13-26.56-39.834-47.669-67.751-41.881-33.365 7.149-67.752 17.023-101.117 26.556-133.119 38.815-259.088 75.245-307.434-78.987-28.598-90.902-33.705-154.568-17.703-206.998 15.661-50.048 50.387-89.201 94.647-139.248 19.406-21.789 41.536-46.643 64.687-75.582 50.048-62.304 50.048-140.269 49.707-215.169v-14.64c0-58.9 2.043-106.904 25.875-146.397 27.577-45.281 80.689-70.135 166.484-78.987 215.851-21.108 237.64 102.819 260.451 234.576 1.362 8.512 3.064 17.023 4.426 25.875 10.214 58.218 22.13 105.542 45.621 146.738 6.809 11.916 14.64 23.832 22.471 35.067 34.045 48.005 77.286 90.221 118.816 130.736 83.08 81.37 154.91 151.844 126.31 237.64-50.38 154.911-234.572 233.891-352.371 233.891zM653.721 962.294c23.832 0 40.855 20.428 60.261 43.576 25.534 30.64 57.197 68.78 116.777 72.18 115.756 6.81 312.541-71.5 365.651-231.171 28.26-84.434-43.24-154.228-125.63-235.257-41.87-40.855-84.772-83.072-119.158-131.076-8.171-11.236-15.661-23.151-22.811-35.408-23.832-41.536-35.407-89.2-45.961-147.759-1.703-8.512-3.065-17.363-4.426-25.875-11.576-66.73-22.811-129.715-57.538-173.974-39.153-49.707-102.818-68.432-200.53-58.9-190.657 19.066-190.657 122.906-190.657 223.001v14.64c.341 75.581.341 153.546-50.047 216.872-23.151 28.938-45.281 53.452-64.687 75.581-90.903 102.138-136.184 153.547-76.603 343.863 26.555 84.775 76.943 110.993 139.247 110.993 49.707 0 106.564-16.69 165.123-33.708 33.364-9.533 67.751-19.747 101.116-26.556 3.745-.681 6.809-1.022 9.873-1.022z" fill="url(#paint12_linear)"/><path opacity=".342" d="M841.314 1070.22c-4.766 0-9.192 0-13.618-.34-58.559-3.41-89.541-40.52-114.394-70.135-21.449-25.875-38.472-46.303-65.709-40.515-32.343 6.809-65.368 16.342-97.371 25.535-129.033 37.455-250.577 72.515-297.901-75.923-27.918-88.178-33.365-150.142-18.044-201.211 14.98-48.685 48.685-87.497 91.583-136.183 18.385-21.108 39.153-44.6 60.942-72.177 48.345-60.602 48.345-135.843 48.686-208.361v-14.98c.34-55.154 2.383-103.84 26.215-141.971 27.237-43.92 78.646-68.092 162.399-76.603C834.165 36.588 855.614 157.79 878.424 285.803l4.086 23.492c8.511 45.962 19.406 98.393 44.6 142.652 6.809 11.916 13.959 23.151 21.789 34.386 32.684 46.303 73.881 86.817 113.711 126.311 80.35 79.667 149.46 148.099 121.55 231.852-50.39 149.121-229.133 225.724-342.846 225.724zM656.445 956.166c23.152 0 39.834 19.747 58.559 42.217 24.513 29.277 55.495 66.047 113.032 69.457 111.671 6.47 301.984-69.457 353.734-224.025 27.58-82.391-41.19-150.483-120.86-229.469-39.83-39.493-81.369-80.348-114.053-126.651-7.831-10.894-15.321-22.47-21.79-34.386-25.194-44.26-36.429-97.371-44.94-143.333l-4.086-23.492c-11.575-65.027-22.47-126.31-56.516-169.208-38.472-48.345-100.435-66.73-195.423-57.197-185.21 18.726-185.891 119.161-186.231 216.192v14.98c-.34 73.198-.34 148.78-49.026 210.063-21.789 27.577-42.557 51.068-60.942 72.177-87.498 100.095-131.417 150.483-72.858 335.351 46.302 146.738 167.165 111.668 295.177 74.561 32.003-9.193 65.368-19.066 97.712-25.875 2.383-1.021 5.447-1.362 8.511-1.362z" fill="url(#paint13_linear)"/><path opacity=".366" d="M837.229 1059.67c-4.426 0-8.512 0-12.597-.34-56.516-3.07-86.477-38.82-110.649-67.416-20.768-24.853-37.451-44.259-63.326-38.812-30.981 6.469-62.984 15.661-93.966 24.854-124.608 36.084-242.407 70.134-288.368-73.199-57.878-180.443-15.321-230.15 69.794-328.883 17.363-20.087 36.769-42.898 57.197-68.772 46.302-58.559 46.642-131.417 47.323-201.552v-15.661c.681-53.452 3.064-100.435 26.216-137.545 26.555-42.558 76.943-66.05 157.972-74.56 203.935-20.428 225.384 97.37 248.195 221.638 1.361 7.149 2.723 14.639 4.085 21.789 8.512 44.6 19.406 95.669 43.579 138.226 6.468 11.576 13.618 22.811 21.108 33.365 31.322 44.6 70.478 83.753 108.608 121.884 77.28 77.625 144.35 144.695 116.78 226.405-49.03 144.355-222.324 218.579-331.951 218.579zm-178.06-109.972c22.47 0 38.472 19.065 56.516 40.514 25.194 29.618 53.452 63.328 108.947 66.728 107.585 6.13 291.428-67.409 341.818-216.53 27.24-80.348-39.15-146.737-116.09-224.021-38.14-38.132-77.629-77.625-108.951-122.225-7.49-10.554-14.64-21.789-21.108-33.365-24.513-42.898-35.408-94.307-43.92-138.907-1.361-7.15-2.723-14.64-4.085-21.789-11.576-62.985-22.47-122.565-55.835-164.442-37.451-46.983-97.712-64.687-189.976-55.495C446.723 98.552 445.701 195.923 444.34 289.89v15.661c-.681 70.815-1.362 143.674-48.005 203.254-20.428 26.215-40.174 48.685-57.197 68.772-84.434 98.052-126.991 147.419-69.454 326.5 45.281 141.294 162.059 107.584 285.645 71.837 30.982-8.852 62.985-18.045 93.967-24.854 3.745-1.021 6.809-1.361 9.873-1.361z" fill="url(#paint14_linear)"/><path opacity=".39" d="M833.483 1048.77c-4.085 0-7.83 0-11.575-.34-54.473-3.06-83.412-37.11-106.904-64.687-20.087-23.832-36.089-42.557-61.283-37.11-29.96 6.469-60.601 15.321-90.221 23.832-120.522 34.725-233.895 67.755-278.836-70.475-56.856-174.995-15.661-223.34 66.049-320.371 16.002-19.066 34.387-40.855 53.452-65.368 44.26-56.857 45.281-126.991 46.303-194.742 0-5.448 0-10.895.34-16.002 1.022-51.409 3.745-97.03 26.556-133.119 26.215-41.196 74.901-64.006 153.547-72.177 197.806-19.747 218.915 94.307 241.725 214.829 1.362 6.809 2.383 13.278 3.745 20.087 8.171 43.238 19.066 92.605 42.558 134.141 6.468 11.235 13.277 22.13 20.427 32.343 29.96 42.898 67.414 80.689 103.504 117.458 74.56 75.923 138.9 141.291 111.67 220.958-48.35 139.247-215.514 210.743-321.057 210.743zM661.892 943.569c21.79 0 37.11 18.044 54.814 38.812 24.173 28.599 51.75 60.939 105.202 63.669 103.499 5.78 280.882-65.711 329.902-209.044 26.9-78.306-37.11-142.993-111.33-218.234-36.09-36.77-73.877-74.901-103.838-117.799-7.149-10.214-13.958-21.108-20.427-32.343-23.492-41.536-34.387-91.243-42.898-134.822-1.362-6.809-2.383-13.278-3.745-20.087-11.575-61.283-22.47-118.82-54.814-159.335-36.429-45.621-94.988-62.644-184.188-53.452-174.314 18.045-176.017 112.011-177.719 202.914 0 5.447-.341 10.554-.341 16.001-1.021 68.432-2.042 138.907-46.642 196.445-19.066 24.853-37.451 46.302-53.793 65.368-81.369 96.009-122.224 144.354-65.708 317.988 44.259 135.84 156.951 103.5 276.112 69.113 29.619-8.511 60.601-17.363 90.561-23.832 3.065-1.021 5.788-1.362 8.852-1.362z" fill="url(#paint15_linear)"/><path opacity=".415" d="M829.398 1038.22c-3.745 0-7.15 0-10.895-.34-52.43-2.73-80.348-35.41-103.159-61.627-19.406-22.811-35.067-40.855-59.239-35.748-28.599 6.128-58.219 14.64-86.817 22.811-116.097 33.365-225.724 65.024-269.644-67.752-55.835-169.207-16.342-216.872 62.645-311.859 14.98-18.045 32.003-38.472 50.047-61.964 42.217-54.814 43.579-122.565 44.941-187.933 0-5.447.34-11.235.34-16.682 1.362-49.707 4.086-93.967 26.556-128.694 25.534-39.833 73.199-61.963 149.121-69.794 191.337-19.406 212.786 91.243 235.597 208.361 1.021 6.128 2.383 12.256 3.745 18.385 8.512 43.578 19.066 89.54 41.536 129.714 6.128 10.895 12.597 21.449 19.747 31.322 28.598 40.855 64.006 77.625 98.391 113.033 71.84 73.879 133.8 137.885 106.91 215.169-46.65 134.481-208.366 203.598-309.822 203.598zM664.275 937.441c21.109 0 36.089 17.363 53.112 37.45 23.492 27.239 50.047 58.219 101.457 60.939 99.754 5.11 270.326-63.662 317.986-201.889 26.22-75.922-35.07-139.587-106.56-212.786-34.388-35.408-70.136-72.177-98.394-113.373-6.809-9.873-13.618-20.427-19.747-31.662-22.81-40.175-33.024-86.477-41.536-130.396-1.361-6.128-2.383-12.256-3.745-18.385-11.575-59.24-22.129-115.415-54.133-154.568-35.748-43.919-92.264-60.602-178.74-51.75-168.868 17.704-171.251 108.266-173.634 196.105 0 5.447-.341 11.235-.341 16.682-1.361 65.708-2.723 133.8-45.621 189.295-17.704 23.151-35.067 43.919-50.047 61.963-78.306 94.307-117.459 141.291-61.964 309.477 43.238 130.737 151.504 99.414 266.579 66.389 28.599-8.171 58.219-16.682 86.817-22.81 3.064-.341 5.788-.681 8.511-.681z" fill="url(#paint16_linear)"/><path opacity=".439" d="M825.312 1027.66c-3.405 0-6.809 0-9.873-.34-50.388-2.38-77.284-33.703-99.074-58.897-18.725-21.79-33.705-39.153-57.197-34.046-27.577 5.788-55.835 13.959-83.072 21.789-111.67 32.003-217.553 62.644-260.11-65.027-54.814-163.761-16.682-210.404 58.899-303.349 13.959-17.023 29.62-36.429 46.303-58.218 40.174-53.112 41.876-118.14 43.919-181.124 0-5.788.34-11.576.681-17.364 1.702-48.004 4.766-90.562 26.896-124.267 25.194-38.472 71.156-59.921 144.695-67.751 185.209-18.726 206.658 88.178 229.128 201.551 1.022 5.447 2.043 11.235 3.405 16.683 8.511 42.216 18.725 86.817 40.515 125.288 6.128 10.555 12.256 20.768 18.725 30.301 26.896 39.153 60.601 74.561 93.288 108.266 69.11 72.177 128.69 134.481 102.14 209.722-45.63 129.715-201.897 196.783-299.268 196.783zm-158.313-96.688c20.087 0 34.727 16.683 51.069 35.748 22.47 26.216 48.004 55.5 97.371 58.22 95.668 4.77 259.771-61.624 306.071-194.403 25.88-73.879-33.02-135.843-101.46-207.339-32.68-34.046-66.385-69.454-93.281-108.607-6.469-9.532-12.938-19.746-19.066-30.641-21.789-38.812-32.003-83.753-40.515-125.969-1.021-5.448-2.383-11.236-3.404-16.683-11.576-57.537-22.13-111.67-53.112-149.461-34.727-42.558-89.881-58.559-173.293-50.048-163.761 17.364-166.484 104.862-169.548 189.636-.341 5.788-.341 11.575-.681 17.363-1.703 63.325-3.745 129.034-44.26 182.486-16.682 21.789-32.344 41.195-46.302 58.218-75.242 92.265-113.033 138.567-58.559 300.966 41.876 125.292 146.397 95.328 257.046 63.325 27.237-7.831 55.835-16.002 83.412-21.789 3.064-.681 5.788-1.022 8.512-1.022z" fill="url(#paint17_linear)"/><path opacity=".463" d="M821.567 1017.11c-3.064 0-6.128 0-8.852-.34-48.345-2.39-74.56-32.005-95.328-56.178-18.045-20.768-32.684-37.11-55.155-32.344-26.555 5.448-53.451 13.278-79.667 20.769-107.585 30.981-209.041 59.923-250.577-62.304-53.793-158.313-17.364-203.935 55.495-295.178 12.937-16.001 27.236-34.386 42.557-54.473 38.131-51.069 40.514-113.713 42.557-174.315.341-6.128.341-11.916.681-18.044 2.043-46.303 5.447-87.158 26.896-119.842 24.513-37.11 69.454-57.878 140.61-65.368 179.081-18.385 200.53 85.115 223 195.083 1.021 5.107 2.043 9.873 3.064 14.98 8.511 40.855 18.725 83.753 39.153 121.203 5.788 10.214 11.916 20.428 18.044 29.28 25.535 37.45 57.538 71.156 88.175 103.84 66.05 70.134 123.25 131.076 97.38 204.275-44.61 124.267-194.747 188.956-288.033 188.956zm-151.844-92.266c19.406 0 33.365 16.001 49.366 34.046 21.789 24.853 46.302 53.11 93.626 55.15 91.584 4.43 249.215-59.917 294.155-186.908 25.54-71.836-31.32-132.098-96.69-201.892-30.64-32.684-62.643-66.389-88.178-104.18-6.128-9.192-12.256-19.066-18.384-29.62-20.768-37.45-30.982-80.688-39.494-121.884-1.021-5.107-2.042-9.873-3.064-14.98-11.575-55.495-22.13-107.925-52.43-144.695-33.706-41.195-87.158-56.516-167.846-48.345-158.314 16.682-161.718 101.116-165.123 182.826-.34 5.788-.34 11.916-.681 18.045-2.042 60.942-4.426 123.926-42.897 175.676-15.321 20.428-29.62 38.472-42.558 54.473-72.177 90.562-108.266 135.843-54.814 292.795 40.855 120.179 141.291 91.243 247.514 60.601 26.215-7.49 53.452-15.32 79.667-20.768 2.383 0 5.107-.34 7.831-.34z" fill="url(#paint18_linear)"/><path opacity=".488" d="M817.482 1006.55c-2.724 0-5.447 0-8.171-.34-46.302-2.04-71.496-30.638-91.583-53.449-17.364-19.746-31.322-35.407-52.771-30.981-25.194 5.447-51.069 12.597-75.923 19.746-103.159 29.62-200.87 57.538-241.385-59.58-52.771-152.866-18.044-197.806 51.75-287.006 11.576-14.98 24.853-32.004 38.812-50.729 36.089-49.026 38.813-109.287 41.196-167.165.34-6.128.681-12.597 1.021-18.725 2.383-44.6 5.788-84.093 27.237-115.415 24.172-35.749 67.411-55.836 136.183-62.985v1.362-1.362c172.953-18.045 194.062 82.05 216.532 188.273 1.021 4.426 1.702 8.852 2.723 13.278 8.512 39.493 18.385 81.029 38.132 116.777 5.788 10.214 11.575 19.747 17.363 28.258 24.173 35.749 54.133 68.092 83.072 99.414 63.33 68.432 118.14 127.672 92.6 198.828-42.89 119.501-187.588 181.801-276.788 181.801zm-145.035-87.834c18.725 0 32.343 15.32 47.324 32.684 20.767 23.491 44.6 50.39 89.54 52.43 87.498 3.75 238.659-57.878 282.239-179.762 25.2-69.794-29.28-128.353-91.923-196.444-28.939-31.323-58.899-63.666-83.072-99.414-6.128-8.852-11.916-18.385-17.703-28.599-20.087-36.088-29.961-77.965-38.472-117.458-1.022-4.426-2.043-8.852-2.724-13.278-11.235-53.792-22.13-104.521-51.409-139.928-33.025-39.834-84.434-54.474-162.399-46.303-152.866 16.002-156.951 97.372-161.037 176.358-.34 6.128-.681 12.256-1.021 18.725-2.724 58.559-5.107 118.82-41.876 168.527-13.959 18.725-26.897 35.748-38.813 50.728-71.155 91.243-103.84 133.12-51.409 284.624 39.834 114.734 136.183 87.157 237.981 57.878 25.193-7.15 51.068-14.64 76.262-20.087 3.405-.341 5.788-.681 8.512-.681z" fill="url(#paint19_linear)"/><path opacity=".512" d="M813.396 996h-7.149c-44.26-1.702-68.433-28.939-87.498-50.388-16.683-18.725-29.961-33.706-50.729-29.28-24.172 5.107-48.685 12.257-72.517 19.066-99.074 28.258-192.359 54.814-231.853-56.856-52.09-147.419-20.427-188.614 48.345-279.176 10.555-13.959 22.471-29.62 34.727-46.643 34.046-46.984 37.11-104.521 40.174-160.356l1.022-19.406c2.723-42.898 6.468-80.689 27.236-110.99 23.492-34.386 65.709-53.792 131.758-60.942v1.362-1.362c166.825-17.704 187.933 78.986 210.403 181.464l2.383 11.236c8.512 38.131 18.385 77.965 37.11 112.351 5.448 9.873 10.895 19.066 16.683 27.577 22.811 34.046 50.728 64.687 77.965 94.648 60.604 66.729 112.694 124.267 87.494 193.38-24.85 68.092-79.664 109.628-121.199 132.779C911.789 980.339 857.315 996 813.396 996zm-138.567-83.413c18.045 0 30.982 14.64 45.622 30.982 20.087 22.47 42.557 48.005 85.796 49.707 83.752 3.405 228.103-55.835 270.323-172.272 24.51-67.751-27.24-124.948-87.157-190.997-27.237-29.96-55.154-60.602-77.965-94.988-5.788-8.512-11.235-17.704-16.682-27.577-19.066-34.727-28.939-74.901-37.451-113.032l-2.383-11.236c-11.235-51.749-22.13-100.775-50.728-135.162-32.003-38.471-82.051-52.43-156.952-44.6-136.864 14.64-151.504 79.327-156.951 169.549l-1.021 19.406c-3.065 55.835-5.788 113.713-40.515 161.718-12.256 17.023-24.513 32.684-35.067 46.643-68.432 89.54-99.414 130.395-48.005 276.792 38.472 109.287 131.077 83.072 228.788 55.155 23.832-6.81 48.686-13.959 72.518-19.066 3.064-1.022 5.447-1.022 7.83-1.022z" fill="url(#paint20_linear)"/><path opacity=".537" d="M809.651 985.105h-6.469c-42.217-1.702-65.368-27.237-83.752-47.664-16.002-18.044-28.939-32.003-48.686-27.918-22.811 4.767-46.302 11.576-68.773 18.045-94.647 26.896-184.188 52.43-222.319-53.793-51.069-141.971-21.108-182.486 44.94-271.345 9.874-13.278 20.088-26.896 30.982-42.557 32.003-45.281 35.408-100.095 38.812-153.207.341-6.809.681-13.618 1.362-20.087 5.107-70.134 10.554-149.802 154.909-165.463v1.362-1.362c160.696-17.363 181.805 76.263 204.275 174.996l2.043 9.533c8.852 38.131 18.044 75.241 36.088 108.266 5.448 9.532 10.554 18.384 16.002 26.555 21.449 32.344 47.324 61.623 72.858 89.881 57.537 65.028 107.587 120.863 82.727 188.274-23.83 65.028-76.258 104.861-116.092 126.991-44.6 24.853-97.031 39.493-138.907 39.493zm-132.098-78.986c17.363 0 29.62 13.618 43.919 29.279 19.066 21.109 40.855 45.281 82.051 46.983 79.667 3.065 217.557-53.792 258.407-164.782 24.17-65.708-25.19-121.203-82.39-185.549-25.194-28.258-51.409-57.878-72.858-90.222-5.448-8.171-10.555-17.023-16.002-26.556-18.044-33.365-27.577-70.475-36.429-108.946l-2.043-9.533c-11.235-50.048-22.13-97.371-49.707-130.396-30.981-36.769-79.326-50.388-151.504-42.898-132.098 14.3-146.397 76.604-152.525 162.74-.341 6.809-1.021 13.277-1.362 20.087-3.404 53.452-6.809 108.606-39.153 154.568-10.894 15.661-21.108 29.279-30.981 42.557-65.368 87.838-94.988 128.013-44.6 268.962 37.45 104.181 125.629 78.987 219.255 52.431 22.811-6.469 45.962-13.278 69.113-18.044 2.043-.341 4.426-.681 6.809-.681z" fill="url(#paint21_linear)"/><path opacity=".561" d="M805.906 974.551h-5.788c-40.174-1.362-62.304-25.534-80.007-44.941-15.321-17.023-27.577-30.3-46.643-26.215-21.789 4.766-43.919 10.895-65.368 17.023-90.562 25.534-175.677 50.047-212.787-51.069-50.388-136.864-21.449-176.698 41.536-263.855 8.512-11.916 17.364-24.173 27.237-38.132 29.96-43.238 33.705-95.328 37.45-146.056.341-7.15 1.022-13.959 1.703-21.109 3.064-37.79 7.49-74.22 27.577-102.137 22.81-31.663 61.963-49.707 123.246-56.516v1.362-1.362c154.568-16.683 175.676 73.198 198.147 168.527l1.702 7.83c8.511 36.77 18.044 72.178 35.067 103.84 5.107 9.533 10.214 17.704 15.321 25.535 20.087 30.3 44.259 58.218 67.41 85.114 54.811 62.985 102.141 117.799 77.961 182.826-39.83 105.543-164.777 159.335-243.764 159.335zM680.277 899.99c16.342 0 28.258 12.938 41.876 27.918 18.385 20.087 39.153 42.557 77.965 43.919 77.625 2.724 206.662-50.388 246.492-157.632 23.83-63.666-23.15-117.799-77.284-180.103-23.491-26.896-47.664-54.813-67.751-85.455a347.082 347.082 0 01-15.321-25.875c-17.363-32.003-26.555-67.751-35.407-104.52l-1.703-7.831c-11.235-48.345-22.129-93.626-49.026-125.289-30.3-35.407-76.603-48.685-146.056-40.855-126.991 13.959-141.631 73.539-148.44 156.271-.681 6.809-1.022 13.959-1.702 21.108-3.746 51.069-7.491 103.5-37.791 147.419-9.533 13.618-18.385 26.215-27.237 38.131-62.304 86.477-90.902 125.97-41.196 261.472 36.43 98.733 120.523 74.901 209.723 49.367 21.449-6.129 43.579-12.257 65.368-17.023 2.724-.681 5.107-1.022 7.49-1.022z" fill="url(#paint22_linear)"/><path opacity=".585" d="M801.82 963.997h-4.766c-38.132-1.022-59.24-23.832-76.263-42.217-14.64-16.002-26.556-28.599-44.26-24.854-20.427 4.426-41.536 10.214-61.623 16.002-86.136 24.513-167.505 47.324-203.594-48.345-49.707-131.758-22.13-170.91 38.132-256.366 7.49-10.554 14.98-21.448 23.151-33.364 27.917-41.196 32.003-90.903 36.088-138.907.681-7.49 1.362-14.64 2.043-22.13 7.15-77.625 22.811-138.226 146.738-151.845 148.44-16.342 169.548 70.135 192.018 162.059l1.362 5.787c8.852 36.77 17.704 69.794 34.046 99.414 4.767 8.852 9.533 17.023 14.64 24.513 18.725 28.599 40.855 54.814 62.304 80.348 52.094 61.283 97.034 114.395 73.194 177.72-38.808 100.776-158.309 152.185-233.21 152.185zM683 893.862c15.661 0 27.237 12.257 40.174 26.216 17.364 18.725 37.11 40.174 74.22 41.195 73.539 2.383 196.104-48.685 234.576-150.142 23.49-61.623-21.11-114.054-72.517-174.996-21.79-25.534-43.92-51.75-62.645-80.689-5.107-7.49-9.873-15.661-14.64-24.853-16.342-30.301-25.194-63.325-34.045-100.095l-1.362-5.787c-11.235-46.303-22.13-90.222-48.345-120.863-29.28-34.046-74.22-46.643-140.95-39.153v-1.362 1.362c-121.884 13.278-137.205 72.858-144.355 149.461-.681 7.15-1.362 14.64-2.042 21.79-4.086 48.345-8.171 98.392-36.429 140.269-8.171 11.916-15.662 22.81-23.152 33.364-61.282 87.498-86.817 123.927-37.791 253.982 35.068 93.286 115.416 70.816 200.19 46.643 20.428-5.788 41.195-11.575 61.963-16.001 2.384-.341 4.767-.341 7.15-.341z" fill="url(#paint23_linear)"/><path opacity=".61" d="M798.076 953.443h-3.745c-36.089-1.022-56.176-22.13-72.177-39.153-13.959-14.98-25.194-26.896-42.217-23.151-19.406 4.085-39.153 9.532-58.219 14.98-81.71 23.151-159.334 44.94-194.061-45.622-49.026-126.65-24.513-162.398 34.727-249.556 6.128-8.852 12.256-18.044 19.065-28.258 26.216-39.153 30.301-86.136 34.727-131.757.681-7.831 1.362-15.321 2.383-22.811 7.831-74.22 23.492-132.098 142.312-145.376v1.362-1.362c142.312-16.001 163.42 67.411 185.89 155.59l1.022 3.745c7.149 28.598 16.342 64.687 33.024 95.328 4.767 8.512 9.193 16.342 13.619 23.492 17.023 26.896 37.45 51.409 57.197 75.582 49.367 59.58 91.927 111.329 68.087 172.612-37.106 95.328-151.159 144.355-221.634 144.355zm-112.692-66.05c14.98 0 25.875 11.576 38.131 24.513 16.683 17.704 35.408 37.451 70.475 38.472 69.454 1.703 185.55-46.642 222.66-142.652 23.15-59.92-19.065-110.649-67.751-169.889-19.747-23.832-40.174-48.685-57.537-75.581-4.767-7.15-9.193-14.981-13.959-23.833-16.683-30.981-25.875-67.07-33.025-96.009l-1.021-3.745c-23.151-90.902-42.898-169.208-182.826-153.546-117.118 12.937-132.098 69.794-139.929 142.992-.681 7.49-1.362 15.321-2.383 22.811-4.085 45.621-8.511 93.285-35.067 132.779-6.809 9.873-12.938 19.406-19.066 28.258-58.559 86.136-83.072 121.884-34.727 247.172 34.046 88.179 110.309 66.73 190.998 43.92 19.065-5.448 38.812-10.895 58.218-14.981 2.724-.34 4.766-.681 6.809-.681z" fill="url(#paint24_linear)"/><path opacity=".634" d="M793.99 942.888h-3.064c-34.046-.681-53.111-20.427-68.432-36.429-13.278-13.959-24.172-25.194-40.174-21.449-18.044 3.745-36.77 9.193-54.473 13.959-77.625 21.789-150.824 42.217-184.869-42.898-48.346-121.543-24.854-156.951 31.662-243.087 4.767-7.15 9.533-14.64 14.64-22.47 24.172-37.11 28.598-81.37 33.024-124.268.681-8.171 1.703-16.001 2.724-24.172 8.512-70.816 24.173-125.629 138.226-138.567 136.184-15.32 157.632 64.687 179.762 149.121l.341 1.702c7.83 28.939 16.342 61.964 31.662 90.903 4.426 8.511 8.852 15.661 12.938 22.47 15.661 24.853 34.386 48.005 52.09 70.475 46.643 57.878 86.813 108.266 63.323 167.505-34.384 90.222-142.65 137.205-209.38 137.205zm-105.882-61.623c14.299 0 24.513 10.895 36.429 23.151 15.661 16.342 33.705 35.068 66.389 35.748h3.064c65.709 0 172.613-46.302 208.02-135.502 22.81-57.878-17.022-107.244-62.984-164.782-18.045-22.47-36.77-45.621-52.431-70.815-4.426-6.809-8.511-14.299-13.278-22.811-15.661-29.279-24.172-62.304-32.003-91.583l-.34-1.703c-23.152-87.157-42.898-162.398-177.039-147.078v-1.362 1.362c-112.011 12.597-127.331 66.73-135.843 136.184-1.021 7.83-1.702 16.001-2.723 24.172-4.426 43.238-9.193 87.839-33.706 125.629-5.107 7.831-10.214 15.321-14.64 22.471-56.175 85.114-79.326 120.522-31.662 240.704 33.024 82.731 104.861 62.644 181.464 41.195 18.044-5.106 36.429-10.213 54.814-14.299 2.383-.34 4.426-.681 6.469-.681z" fill="url(#paint25_linear)"/><path opacity=".658" d="M789.905 932.334h-2.043c-32.003-.681-50.047-19.065-64.687-33.705-12.597-12.938-22.811-23.151-38.132-20.087-17.023 3.745-34.386 8.511-51.068 13.278-73.199 20.427-142.652 39.833-175.337-39.834-47.664-116.437-26.896-149.461 28.939-237.3 3.405-5.447 6.81-10.894 10.555-16.342 22.13-35.067 26.896-76.603 31.662-116.777 1.022-8.171 2.043-17.023 3.064-25.194 9.193-67.07 24.854-119.501 134.141-132.098v1.362-1.362c130.396-14.98 151.504 61.623 173.974 142.312 8.171 29.279 16.342 59.24 30.642 86.817 4.426 8.171 8.171 15.321 12.256 21.789 14.299 23.151 30.982 44.6 47.324 65.368 43.919 56.516 81.705 105.202 58.559 162.399-34.387 84.774-137.205 129.374-199.849 129.374zm-99.074-57.197c13.278 0 23.151 10.214 34.386 21.449 14.981 15.321 31.663 32.344 62.645 33.024 61.282 1.022 164.782-42.897 198.828-128.012 22.47-55.835-14.981-104.18-58.219-159.675-16.342-20.768-33.024-42.557-47.324-65.708-4.085-6.469-8.171-13.619-12.256-21.79-14.64-27.577-22.811-57.878-30.982-87.157-22.13-79.667-42.897-155.249-170.91-140.269-107.244 12.256-122.565 63.666-131.757 129.715-1.022 8.171-2.043 17.023-3.064 25.194-4.767 40.514-9.533 82.391-32.004 118.139-3.745 5.787-7.149 11.235-10.554 16.342-55.154 86.817-75.922 119.501-28.598 234.916 31.662 77.284 99.754 58.559 171.931 38.472 16.683-4.767 34.046-9.533 51.069-13.278 2.724-1.362 4.766-1.362 6.809-1.362z" fill="url(#paint26_linear)"/><path opacity=".683" d="M786.159 921.78h-1.362c-29.96-.34-46.983-17.363-60.601-30.982-11.916-11.916-21.79-21.449-36.089-18.384-15.661 3.404-31.662 7.83-47.324 12.256-69.113 19.066-134.481 37.11-165.803-37.11-47.324-112.011-27.577-144.695 25.875-232.193l5.788-9.532c20.087-33.025 25.194-71.837 29.96-109.288 1.022-8.852 2.383-17.704 3.745-26.555 9.533-61.283 25.875-113.033 130.055-125.289 124.608-14.64 145.376 57.537 167.165 134.14l.341 1.703c7.83 27.236 16.001 55.154 29.279 80.688 4.086 8.171 7.831 14.64 11.576 20.768 12.937 21.109 27.577 40.855 42.217 60.261 39.153 52.431 76.263 102.138 53.452 157.633-32.684 79.667-130.055 121.884-188.274 121.884zm-92.604-53.112c12.597 0 22.129 9.193 32.684 19.747 13.958 13.959 29.96 29.96 58.899 29.96h1.362c57.537 0 153.206-41.536 185.89-120.522 22.13-54.133-12.597-100.776-53.111-154.909-14.3-19.065-29.28-39.152-42.217-60.261-3.745-6.128-7.49-12.937-11.576-20.768-13.278-25.875-21.449-54.133-29.279-81.369l-.341-1.703c-21.789-75.241-42.217-146.397-164.101-132.098v-1.361 1.361c-102.478 11.917-117.798 60.602-127.331 122.906-1.362 8.852-2.383 17.704-3.745 26.556-4.767 37.791-9.874 76.943-30.301 110.308l-5.788 9.533c-52.771 86.817-72.858 119.161-25.875 229.81 30.641 72.177 94.648 54.473 162.739 35.407 15.662-4.426 31.663-8.851 47.324-12.256.681 0 2.724-.341 4.767-.341z" fill="url(#paint27_linear)"/><path opacity=".707" d="M782.074 910.885h-.341c-27.917 0-43.919-15.661-56.856-28.258-11.576-10.895-20.428-19.747-34.046-16.682-14.64 3.064-29.279 7.149-43.579 11.235-65.027 17.703-126.31 34.726-156.611-34.387-47.323-107.244-29.279-137.885 23.492-228.107l1.022-1.702c18.044-30.641 23.151-66.73 28.258-101.457 1.361-9.192 2.723-18.725 4.426-27.917 10.213-57.878 26.555-106.904 125.629-118.82 118.479-13.959 139.928 56.856 160.696 125.629l1.022 3.745c7.49 24.853 15.32 50.728 27.577 74.22 4.085 7.831 7.49 13.959 10.894 19.747 11.576 19.065 24.513 37.109 37.11 54.813 36.77 51.069 71.497 99.414 48.686 153.207-31.322 74.9-122.906 114.734-177.379 114.734zm-85.796-48.345c11.916 0 20.768 8.512 30.642 18.385 13.278 12.597 28.258 27.236 54.813 27.236h.341c53.452 0 143.673-39.152 174.655-113.032 22.13-52.43-10.554-97.711-48.345-150.482-12.597-17.364-25.534-35.749-37.11-54.814-3.404-5.788-6.809-11.916-10.895-19.747-12.256-23.832-20.087-49.707-27.577-74.901l-1.021-3.745c-21.449-70.815-41.536-137.545-157.632-123.586l-.341-1.362.341 1.362c-97.372 11.575-113.033 57.537-123.246 116.437-1.703 9.192-3.064 18.725-4.426 27.917-5.107 35.068-10.214 71.496-28.599 102.478l-1.021 1.703c-52.431 89.54-70.135 119.501-23.492 225.383 29.28 66.73 89.541 50.388 153.207 32.684 14.299-4.085 29.279-8.171 43.919-11.235 2.042-.341 3.745-.681 5.787-.681z" fill="url(#paint28_linear)"/><path opacity=".732" d="M778.329 900.331c-25.875 0-40.855-13.959-52.771-25.194-10.895-10.214-19.066-18.044-31.662-15.321-13.278 2.724-26.897 6.469-40.175 10.214-60.601 16.683-117.798 32.344-147.418-31.662-45.281-98.733-33.025-128.694 17.363-217.894 16.002-28.598 21.449-61.623 26.556-93.626 1.702-9.873 3.064-20.087 5.107-29.62 10.554-54.473 27.237-100.435 121.544-112.011 104.52-12.597 129.714 40.515 154.227 117.118l2.043 6.128c7.15 22.811 14.64 45.962 25.534 67.752 3.745 7.49 7.15 13.277 10.214 18.725 9.873 17.023 21.109 33.365 32.003 49.026 34.046 49.707 66.39 96.69 43.919 148.78-31.662 73.199-117.798 107.585-166.484 107.585.341 0 .341 0 0 0zm-79.667-43.919c11.235 0 19.406 7.83 28.939 16.682 12.256 11.576 26.215 24.513 50.728 24.513h.341c47.323-.34 132.098-34.046 163.079-105.882 21.79-50.729-8.511-94.988-43.578-146.057-10.895-15.661-22.13-32.003-32.003-49.026-3.065-5.447-6.129-11.235-10.214-19.066-11.235-21.789-18.725-45.621-25.875-68.432l-2.043-6.128c-23.832-75.241-49.026-127.672-151.163-115.075l-.341-1.362.341 1.362c-92.605 11.235-108.607 56.176-119.161 109.627-2.043 9.874-3.404 19.747-5.107 29.62-5.107 32.344-10.554 65.709-26.896 94.648-49.366 88.179-61.963 117.799-17.023 215.17 28.258 61.623 84.434 46.302 143.674 29.96 13.277-3.745 26.896-7.15 40.174-10.214 2.723-.34 4.426-.34 6.128-.34z" fill="url(#paint29_linear)"/><path opacity=".756" d="M774.925 889.777c-23.152 0-36.429-11.916-48.345-22.47-10.214-9.193-18.045-16.342-29.62-13.619-12.257 2.724-24.513 5.788-36.429 9.193-56.517 15.32-109.628 29.619-137.886-28.599-45.281-93.626-32.684-125.97 9.873-205.977 13.959-26.216 19.406-56.176 24.513-85.455 1.702-10.555 3.745-21.449 6.128-31.663 11.236-51.069 27.918-94.307 117.459-105.202l.34 1.362-.34-1.362c98.733-12.256 124.607 39.493 147.759 108.606l2.723 8.512c6.809 20.427 13.959 41.536 23.832 61.282 2.724 5.448 5.788 11.576 9.533 17.704 8.512 14.981 17.704 29.28 26.896 42.898 31.663 48.345 61.283 94.307 38.813 144.695-29.961 67.411-109.628 99.754-153.888 100.095h-1.361zm-73.539-39.493c10.213 0 18.044 7.149 26.896 14.98 11.575 10.213 24.513 22.13 47.324 21.789 43.578-.681 121.884-32.343 151.163-98.392 21.79-49.026-6.128-92.265-38.812-141.971-9.193-13.959-18.385-28.259-26.896-43.239a486.763 486.763 0 01-9.533-18.044c-9.874-20.087-17.023-41.196-23.832-61.623l-2.724-8.512c-22.811-67.751-48.005-118.82-144.695-106.904-87.838 10.895-103.84 53.112-114.734 103.159-2.384 10.214-4.086 21.109-6.129 31.663-5.106 29.279-10.554 59.921-24.853 86.136-42.898 80.689-54.473 110.309-9.873 203.254 27.236 56.175 79.326 42.217 134.481 27.236 11.916-3.404 24.172-6.468 36.429-9.192 2.383-.34 4.085-.34 5.788-.34z" fill="url(#paint30_linear)"/><path opacity=".78" d="M771.179 879.222c-20.768 0-33.024-10.554-43.919-19.746-9.533-8.171-16.683-14.64-27.577-12.257-10.895 2.384-21.789 5.448-32.684 8.171-52.09 13.959-101.457 27.237-128.694-25.875-42.216-83.071-37.79-114.053 2.384-194.061 11.916-23.832 17.023-50.728 22.13-76.943 2.042-11.236 4.425-22.811 7.149-34.046 11.235-45.962 28.599-87.839 113.373-98.733 93.285-11.916 119.16 38.472 141.29 100.435 1.362 3.745 2.724 7.49 3.745 11.235 6.469 18.044 12.938 36.429 21.449 54.133 3.064 6.469 5.788 11.576 8.511 17.023 6.81 12.597 14.3 24.853 21.79 36.429 28.939 47.324 56.516 92.264 34.046 141.29-25.535 55.836-93.626 91.584-141.971 92.945h-1.022zm-67.07-35.407c9.533 0 17.023 6.128 25.194 13.278 10.554 9.192 22.47 19.406 43.238 19.065 47.324-1.021 114.394-36.429 139.247-91.243 21.79-47.664-4.085-89.54-34.045-138.226-7.15-11.916-14.64-24.172-21.79-36.769-3.064-5.448-5.447-10.555-8.852-17.023-8.852-17.704-15.32-36.429-21.789-54.474-1.362-3.745-2.724-7.49-3.745-10.894-22.47-62.985-46.983-109.968-137.886-98.393l-.34-1.362.34 1.362c-83.072 10.555-99.073 50.048-110.649 96.35-2.723 10.895-5.107 22.47-7.149 33.706-5.107 26.215-10.555 53.792-22.471 77.624-39.833 78.646-44.259 109.287-2.383 191.338 25.875 51.069 74.22 38.131 125.289 24.513 10.895-2.724 21.789-5.788 32.684-8.171 1.702-.341 3.405-.681 5.107-.681z" fill="url(#paint31_linear)"/><path opacity=".805" d="M767.434 868.668c-18.385 0-29.62-8.852-39.493-17.023-8.512-6.809-15.661-12.597-25.534-10.554-9.533 2.043-19.407 4.766-28.939 7.15-48.005 12.597-93.627 24.853-119.501-23.151-42.217-77.625-38.472-110.309-4.767-181.805 9.874-21.109 14.98-44.941 19.747-68.092 2.723-12.256 5.107-24.854 8.511-36.77 11.916-42.557 28.939-81.369 108.947-91.923l.34 1.362-.34-1.362c87.498-11.576 113.713 36.769 134.822 91.923 1.702 4.767 3.404 9.533 5.447 14.3 5.788 15.32 11.576 31.322 19.066 46.983 2.383 4.766 5.106 10.554 7.83 16.002 5.447 9.873 10.895 19.746 16.342 29.279 26.896 46.643 52.09 90.562 29.279 138.226-24.172 50.729-86.135 83.753-130.055 85.455h-1.702zm-60.602-30.981c8.852 0 16.002 5.787 23.152 11.575 9.873 7.831 20.768 17.023 39.493 16.342 42.898-1.702 103.84-34.046 127.331-83.753 22.13-46.302-1.702-87.498-29.279-135.502-5.447-9.533-11.235-19.406-16.342-29.28-3.064-5.447-5.788-11.235-7.831-16.001-7.49-15.661-13.278-31.663-19.065-46.983-1.703-4.767-3.405-9.533-5.448-14.3-21.449-55.835-45.962-101.116-131.417-89.881-77.965 10.214-94.988 48.345-106.563 89.881-3.405 11.916-5.788 24.513-8.512 36.429-4.766 23.152-9.873 47.324-20.087 68.773-33.705 71.837-37.11 102.138 4.767 179.081 24.853 45.622 69.113 34.046 116.096 21.449 9.533-2.383 19.406-5.107 28.939-7.149 1.702-.681 3.064-.681 4.766-.681z" fill="url(#paint32_linear)"/><path opacity=".829" d="M763.69 858.114c-16.002 0-25.875-7.49-34.727-14.299-7.831-5.788-14.299-10.895-23.492-8.852-8.171 1.702-16.682 4.085-24.853 6.128-43.919 11.576-85.455 22.13-110.309-20.087-40.174-68.773-42.217-100.435-12.256-169.889 7.83-18.384 12.597-38.812 17.023-58.559 3.064-13.277 6.128-26.896 10.213-39.833 11.916-37.451 29.62-74.901 104.862-85.115 82.05-11.235 108.265 35.067 128.012 83.413 2.383 5.787 4.767 11.916 7.15 18.044 5.107 12.937 10.213 25.875 16.342 38.812l.681 1.362c2.042 4.426 4.085 9.192 6.468 13.618 3.745 7.15 7.49 14.299 11.235 21.109 24.513 45.962 47.665 89.54 24.513 136.524-22.81 46.302-77.965 75.922-118.139 77.964-.681-.34-1.702-.34-2.723-.34zm-54.133-26.556c8.171 0 14.639 4.767 21.449 9.874 8.852 6.809 19.065 14.299 35.748 13.618 39.153-2.043 93.285-31.322 115.415-76.263 22.47-45.281-.34-88.178-24.513-133.459-3.745-7.15-7.49-13.959-11.235-21.449-2.383-4.426-4.426-9.193-6.469-13.619l-.681-1.362c-6.128-12.937-11.235-26.215-16.342-39.152-2.383-6.129-4.766-11.916-7.149-17.704-20.087-49.026-44.941-92.264-124.948-81.71-73.539 9.873-90.222 44.94-102.478 83.072-4.086 12.937-7.15 26.556-10.214 39.833-4.426 20.087-9.193 40.515-17.364 59.24-29.619 68.432-27.236 99.414 11.916 167.165 23.492 40.515 64.007 29.961 106.904 18.726 8.171-2.043 16.683-4.426 25.194-6.129 1.703-.681 3.065-.681 4.767-.681z" fill="url(#paint33_linear)"/><path opacity=".854" d="M759.944 847.56c-13.618 0-22.47-6.128-30.301-11.576-7.149-4.766-13.278-9.192-21.449-7.49-7.149 1.703-14.299 3.405-21.108 5.107-39.834 10.214-77.625 19.747-101.116-17.363-37.11-58.559-45.622-91.243-19.406-157.973 6.128-15.321 10.213-32.003 13.959-48.345 3.404-14.64 7.149-29.62 12.256-43.919 12.257-34.386 29.96-68.773 100.776-78.646 76.943-10.895 103.159 33.024 121.543 74.901 3.405 7.49 6.469 14.98 9.533 22.81 4.086 9.874 8.171 19.747 12.597 29.62l1.362 3.065c1.702 3.745 3.405 7.149 5.107 10.894 2.043 3.745 3.745 7.831 5.788 11.576 22.81 45.962 44.259 89.54 20.087 136.183-21.109 40.855-70.816 68.092-106.223 70.815-1.022.341-2.043.341-3.405.341zm-47.664-22.47c7.15 0 13.278 4.085 19.406 8.171 8.171 5.447 17.023 11.916 31.663 10.894 34.727-2.383 83.072-28.939 103.84-69.113 23.151-44.94 2.042-87.838-20.087-133.119-2.043-3.745-3.746-7.831-5.788-11.576-1.703-3.745-3.405-7.149-5.107-10.894l-1.362-3.064c-4.426-9.874-8.852-20.087-12.597-29.62-3.405-7.831-6.469-15.321-9.533-22.811-23.151-52.09-51.069-82.731-118.479-73.199l-.341-1.702.341 1.702c-68.773 9.533-86.136 43.239-98.052 76.604-5.107 13.958-8.852 29.279-12.257 43.578-4.085 16.342-8.171 33.365-14.299 48.686-25.875 66.049-18.044 96.69 19.406 155.249 22.47 35.067 58.899 25.875 97.712 16.001 6.809-1.702 13.958-3.745 21.108-5.106 1.362-.341 3.064-.681 4.426-.681z" fill="url(#paint34_linear)"/><path opacity=".878" d="M756.539 837.006c-11.235 0-19.065-4.767-25.875-8.852-6.468-4.086-11.916-7.49-19.406-5.788-5.787 1.362-11.235 2.724-17.023 4.086-35.748 8.851-69.794 17.363-92.264-14.3-36.429-51.749-48.345-83.753-26.896-146.056 4.085-11.917 7.15-24.513 10.554-36.77 4.086-16.342 8.512-33.365 14.98-49.366 11.916-29.62 30.301-62.304 96.35-71.837 68.092-9.873 95.669 26.215 115.075 66.389 4.766 9.533 8.852 19.747 13.278 30.301 2.383 5.788 5.107 11.916 7.83 18.044l2.043 4.767c1.022 2.723 2.383 5.447 3.745 8.171 21.449 46.643 41.536 90.562 15.661 137.545-20.427 37.11-63.665 60.261-94.307 63.325-1.361.341-2.723.341-3.745.341zm-41.536-18.045c6.469 0 11.576 3.405 17.364 6.469 7.149 4.426 15.32 9.533 27.917 8.171 29.62-2.724 72.178-25.534 91.924-61.623 24.854-45.621 5.107-88.86-16.001-134.821-1.362-2.724-2.384-5.448-3.746-8.171l-2.042-4.767c-2.724-6.128-5.107-12.256-7.831-18.044-4.426-10.554-8.852-20.428-13.278-29.96-21.789-45.622-49.366-73.88-111.67-64.688-64.347 9.533-82.391 40.855-93.967 69.794-6.468 15.662-10.554 32.684-14.639 49.026-3.064 12.257-6.469 25.194-10.555 37.11-21.108 60.942-9.532 92.265 26.556 142.993 21.109 29.96 54.133 21.789 88.86 13.278 5.788-1.362 11.235-2.724 17.023-4.086 1.362-.681 2.723-.681 4.085-.681z" fill="url(#paint35_linear)"/><path opacity=".902" d="M752.454 826.792c-8.852 0-15.321-3.405-21.109-6.128-5.787-3.065-10.894-5.448-17.363-4.086-4.085 1.021-8.171 2.043-12.597 3.064-30.641 7.49-62.304 14.98-83.753-11.235-35.748-44.6-50.728-77.284-34.386-134.141 2.383-7.49 4.085-15.32 6.128-23.491 4.767-18.725 9.533-38.132 18.045-56.516 13.277-28.599 33.705-56.176 92.264-65.028 63.325-9.873 90.562 23.832 108.606 58.219 7.15 13.618 13.278 28.258 20.087 43.919 1.021 2.383 1.702 4.426 2.724 6.468.681 2.043 1.702 3.745 2.383 5.788 17.023 40.174 31.322 83.072 5.788 127.672-18.726 32.344-55.495 52.431-82.391 55.835-1.022-.681-2.724-.34-4.426-.34zm-34.727-13.959c5.447 0 10.214 2.383 14.98 4.766 6.809 3.405 13.619 6.81 24.173 5.448 25.534-3.064 61.963-23.151 80.008-54.133 24.853-42.898 10.554-85.115-6.129-124.608-.681-2.043-1.702-3.745-2.383-5.788-1.021-2.042-1.702-4.085-2.724-6.468-6.809-15.662-12.937-30.642-20.087-43.92-17.704-33.024-43.919-65.708-105.201-56.516-57.197 8.852-76.944 35.749-89.881 63.326-8.171 18.044-13.278 37.11-17.704 55.835-2.043 7.83-4.086 16.001-6.128 23.832-16.002 55.495-2.043 86.476 33.705 131.076 20.087 24.854 49.366 17.704 80.348 10.214 4.086-1.021 8.512-2.043 12.597-3.064h4.426z" fill="url(#paint36_linear)"/><path opacity=".927" d="M670.403 818.281c-13.278 0-25.875-3.405-36.429-14.64-34.727-36.429-53.792-69.794-41.876-121.884l1.702-7.15c5.107-22.47 10.214-45.621 21.79-67.07 12.937-23.832 33.364-49.367 88.178-58.219 45.281-7.49 77.625 8.512 102.138 49.707 6.468 10.555 12.597 23.832 19.065 39.834l3.065 8.171 1.021 3.064c11.235 29.62 23.151 73.88-4.086 117.458-17.703 28.258-48.685 44.941-70.474 48.345-9.533 1.703-16.342-1.021-22.13-3.064-5.107-2.043-9.533-3.745-15.321-2.383-2.383.681-5.107 1.021-7.49 1.702-13.278 2.724-26.556 6.129-39.153 6.129zm33.706-265.898c-53.112 8.851-73.199 33.364-85.796 56.516-11.235 21.108-16.342 43.919-21.449 66.049l-1.702 7.149c-11.576 51.069 7.15 83.412 40.855 119.161 19.066 20.087 44.94 13.958 72.518 7.49 2.383-.681 5.107-1.022 7.49-1.703 6.468-1.361 11.575.341 17.023 2.384 5.787 2.383 11.916 4.426 20.427 3.064 21.449-3.745 51.75-20.768 68.092-46.984 20.087-32.343 21.449-68.772 4.085-114.734l-1.021-3.064-3.064-8.171c-6.469-16.002-12.597-28.939-19.066-39.493-23.491-39.493-54.814-54.814-98.392-47.664z" fill="url(#paint37_linear)"/><path opacity=".951" d="M681.98 810.11c-11.576 0-22.471-2.724-32.003-10.555-40.515-34.045-55.836-68.091-49.367-109.968 3.405-21.108 8.512-45.962 22.13-67.751 12.256-19.406 32.684-42.557 83.753-51.75 40.174-7.149 72.517 6.81 95.328 41.196 6.809 10.214 12.937 22.47 18.044 35.748 1.362 3.405 2.384 6.809 3.745 10.214 8.852 26.556 13.619 67.07-14.299 107.585-13.618 19.746-36.769 36.088-58.218 40.855-7.49 1.702-13.278.34-18.385-.681-4.426-1.022-8.512-1.702-13.278-.681l-1.021.34c-11.916 2.383-24.513 5.448-36.429 5.448zm25.534-236.96c-49.707 8.852-69.794 31.323-81.71 50.048-13.618 21.449-18.725 45.621-21.789 66.73-6.129 40.855 8.511 73.879 48.004 106.904 18.385 15.32 42.558 9.533 66.049 4.085l1.022-.34c5.447-1.362 9.873-.341 14.639.681 5.107 1.021 10.214 2.042 17.023.681 20.768-4.767 43.238-20.768 56.516-39.493 26.897-39.494 22.471-78.646 13.959-104.521-1.021-3.405-2.383-6.809-3.404-10.214-5.107-13.278-10.895-24.853-17.704-35.067-22.811-33.025-53.793-46.303-92.605-39.494z" fill="url(#paint38_linear)"/><path opacity=".976" d="M693.555 801.938c-9.533 0-18.725-1.702-27.237-6.809-38.812-22.811-59.239-58.559-56.856-98.052 1.702-24.172 8.852-44.94 21.449-61.963 17.363-23.152 43.578-38.132 79.667-44.941 35.748-6.809 67.07 4.767 88.86 32.684 7.49 9.533 13.278 20.087 17.023 31.322 1.021 2.724 2.042 5.788 2.723 9.193 8.171 30.641-.681 67.07-24.172 97.371-11.916 15.321-29.62 28.258-46.303 33.365-5.787 1.702-10.554 2.042-14.98 2.042-3.745 0-6.809 0-10.554 1.022-9.873 2.723-20.087 4.766-29.62 4.766zm36.089-210.063c-6.129 0-12.257.681-18.726 1.703-35.067 6.809-60.601 21.108-77.624 43.578-12.257 16.342-19.066 36.089-20.768 59.921-2.383 38.131 17.704 72.858 55.154 94.988 16.342 9.533 35.748 6.809 54.133 2.383 4.086-1.021 7.831-1.021 11.576-1.021 4.426 0 8.852-.341 13.958-2.043 16.002-5.107 33.025-17.704 44.601-32.343 22.81-29.28 31.662-64.688 23.832-94.307-1.022-3.405-1.703-6.469-2.724-9.193-4.086-11.235-9.533-21.449-16.682-30.641-17.023-21.789-40.175-33.025-66.73-33.025z" fill="url(#paint39_linear)"/><path d="M705.131 794.108c-7.491 0-15.321-1.022-22.811-3.405-34.727-10.214-62.985-48.004-64.347-86.136-.681-20.768 6.128-40.174 20.428-55.835 16.342-18.044 41.876-30.982 75.241-38.131 30.982-6.469 62.304 2.723 82.391 24.172 9.533 10.214 15.661 22.471 18.385 35.748 4.766 25.194-8.852 60.261-34.387 87.498-22.47 23.492-48.685 36.089-74.9 36.089zm27.917-182.145c-6.128 0-12.597.68-19.065 2.042-32.685 6.809-57.538 19.406-73.54 37.11-13.618 14.98-20.427 33.365-19.406 53.452 1.362 36.77 28.599 73.199 61.964 83.072 31.662 9.192 66.049-2.383 93.966-32.003 24.173-25.875 38.132-60.602 33.365-84.434-2.383-12.937-8.171-24.172-17.363-34.046-14.64-16.001-36.77-25.193-59.921-25.193z" fill="url(#paint40_linear)"/><defs><linearGradient id="paint0_linear" x1="1280.99" y1="376.289" x2="-22.165" y2="678.335" gradientUnits="userSpaceOnUse"><stop stop-color="#3731DE"/><stop offset=".005" stop-color="#3832DD"/><stop offset=".995" stop-color="#E034FA"/><stop offset="1" stop-color="#E034FA"/></linearGradient><linearGradient id="paint1_linear" x1="1268.4" y1="384.001" x2="-5.153" y2="679.185" gradientUnits="userSpaceOnUse"><stop stop-color="#3A34D9"/><stop offset=".005" stop-color="#3C36D8"/><stop offset=".995" stop-color="#DC39F8"/><stop offset="1" stop-color="#DC39F8"/></linearGradient><linearGradient id="paint2_linear" x1="1255.69" y1="391.718" x2="11.848" y2="680.016" gradientUnits="userSpaceOnUse"><stop stop-color="#3E38D5"/><stop offset=".005" stop-color="#4039D4"/><stop offset=".995" stop-color="#D93DF5"/><stop offset="1" stop-color="#D93DF5"/></linearGradient><linearGradient id="paint3_linear" x1="1243.07" y1="399.432" x2="28.943" y2="680.841" gradientUnits="userSpaceOnUse"><stop stop-color="#3F37D1"/><stop offset=".005" stop-color="#443DD0"/><stop offset=".995" stop-color="#D441F2"/><stop offset="1" stop-color="#D441F2"/></linearGradient><linearGradient id="paint4_linear" x1="1230.44" y1="407.143" x2="45.971" y2="681.68" gradientUnits="userSpaceOnUse"><stop stop-color="#4740CC"/><stop offset=".005" stop-color="#4942CB"/><stop offset=".995" stop-color="#D046F0"/><stop offset="1" stop-color="#D046EF"/></linearGradient><linearGradient id="paint5_linear" x1="1217.82" y1="414.857" x2="62.995" y2="682.522" gradientUnits="userSpaceOnUse"><stop stop-color="#4C44C8"/><stop offset=".005" stop-color="#4D45C7"/><stop offset=".995" stop-color="#CB4AED"/><stop offset="1" stop-color="#CB4AED"/></linearGradient><linearGradient id="paint6_linear" x1="1205.19" y1="422.633" x2="80.028" y2="683.423" gradientUnits="userSpaceOnUse"><stop stop-color="#4F47C4"/><stop offset=".005" stop-color="#3E34C3"/><stop offset=".995" stop-color="#C84EEA"/><stop offset="1" stop-color="#C84EEA"/></linearGradient><linearGradient id="paint7_linear" x1="1192.58" y1="430.353" x2="97.046" y2="684.274" gradientUnits="userSpaceOnUse"><stop stop-color="#534BBF"/><stop offset=".005" stop-color="#544CBE"/><stop offset=".995" stop-color="#C453E8"/><stop offset="1" stop-color="#C453E7"/></linearGradient><linearGradient id="paint8_linear" x1="1179.96" y1="438.073" x2="114.058" y2="685.128" gradientUnits="userSpaceOnUse"><stop stop-color="#574FBB"/><stop offset=".005" stop-color="#5950BA"/><stop offset=".995" stop-color="#C157E5"/><stop offset="1" stop-color="#C157E5"/></linearGradient><linearGradient id="paint9_linear" x1="1167.36" y1="445.791" x2="131.065" y2="685.983" gradientUnits="userSpaceOnUse"><stop stop-color="#5C53B7"/><stop offset=".005" stop-color="#5D54B6"/><stop offset=".995" stop-color="#BC5BE2"/><stop offset="1" stop-color="#BC5BE2"/></linearGradient><linearGradient id="paint10_linear" x1="1154.77" y1="453.574" x2="148.079" y2="686.905" gradientUnits="userSpaceOnUse"><stop stop-color="#6057B2"/><stop offset=".005" stop-color="#6057B2"/><stop offset=".995" stop-color="#B95FDF"/><stop offset="1" stop-color="#B860DF"/></linearGradient><linearGradient id="paint11_linear" x1="1142.18" y1="461.288" x2="165.07" y2="687.761" gradientUnits="userSpaceOnUse"><stop stop-color="#645AAE"/><stop offset=".005" stop-color="#655BAF"/><stop offset=".995" stop-color="#B564DD"/><stop offset="1" stop-color="#B564DD"/></linearGradient><linearGradient id="paint12_linear" x1="1129.6" y1="469.046" x2="182.041" y2="688.67" gradientUnits="userSpaceOnUse"><stop stop-color="#695EB1"/><stop offset=".005" stop-color="#6A5FB2"/><stop offset=".995" stop-color="#B068DA"/><stop offset="1" stop-color="#B068DA"/></linearGradient><linearGradient id="paint13_linear" x1="1117.01" y1="476.742" x2="199.007" y2="689.517" gradientUnits="userSpaceOnUse"><stop stop-color="#6E62B4"/><stop offset=".005" stop-color="#6F63B5"/><stop offset=".995" stop-color="#AB6CD7"/><stop offset="1" stop-color="#AC6DD7"/></linearGradient><linearGradient id="paint14_linear" x1="1104.43" y1="484.436" x2="215.891" y2="690.381" gradientUnits="userSpaceOnUse"><stop stop-color="#7366B7"/><stop offset=".005" stop-color="#7366B7"/><stop offset=".995" stop-color="#AA71D5"/><stop offset="1" stop-color="#A971D4"/></linearGradient><linearGradient id="paint15_linear" x1="1091.86" y1="492.128" x2="232.842" y2="691.231" gradientUnits="userSpaceOnUse"><stop stop-color="#7769B9"/><stop offset=".005" stop-color="#786ABA"/><stop offset=".995" stop-color="#A775D2"/><stop offset="1" stop-color="#A775D2"/></linearGradient><linearGradient id="paint16_linear" x1="1079.3" y1="499.82" x2="249.78" y2="692.087" gradientUnits="userSpaceOnUse"><stop stop-color="#7D6DBC"/><stop offset=".005" stop-color="#7E6EBD"/><stop offset=".995" stop-color="#A679CF"/><stop offset="1" stop-color="#A57ACF"/></linearGradient><linearGradient id="paint17_linear" x1="1066.75" y1="507.511" x2="266.704" y2="692.946" gradientUnits="userSpaceOnUse"><stop stop-color="#8471BF"/><stop offset=".005" stop-color="#8672BF"/><stop offset=".995" stop-color="#A47ECD"/><stop offset="1" stop-color="#A27ECC"/></linearGradient><linearGradient id="paint18_linear" x1="1054.22" y1="515.201" x2="283.617" y2="693.811" gradientUnits="userSpaceOnUse"><stop stop-color="#8A75C1"/><stop offset=".005" stop-color="#8C75C2"/><stop offset=".995" stop-color="#A081CA"/><stop offset="1" stop-color="#9F80CA"/></linearGradient><linearGradient id="paint19_linear" x1="1041.69" y1="522.847" x2="300.502" y2="694.64" gradientUnits="userSpaceOnUse"><stop stop-color="#9279C4"/><stop offset=".005" stop-color="#9379C5"/><stop offset=".995" stop-color="#997DC7"/><stop offset="1" stop-color="#987CC7"/></linearGradient><linearGradient id="paint20_linear" x1="1029.2" y1="530.565" x2="317.237" y2="695.583" gradientUnits="userSpaceOnUse"><stop stop-color="#987CC7"/><stop offset=".005" stop-color="#997DC7"/><stop offset=".995" stop-color="#9379C5"/><stop offset="1" stop-color="#9279C4"/></linearGradient><linearGradient id="paint21_linear" x1="1016.73" y1="538.323" x2="334.105" y2="696.542" gradientUnits="userSpaceOnUse"><stop stop-color="#9F80CA"/><stop offset=".005" stop-color="#A081CA"/><stop offset=".995" stop-color="#8C75C2"/><stop offset="1" stop-color="#8A75C1"/></linearGradient><linearGradient id="paint22_linear" x1="1004.28" y1="546.056" x2="350.943" y2="697.487" gradientUnits="userSpaceOnUse"><stop stop-color="#A27ECC"/><stop offset=".005" stop-color="#A47ECD"/><stop offset=".995" stop-color="#8672BF"/><stop offset="1" stop-color="#8471BF"/></linearGradient><linearGradient id="paint23_linear" x1="991.851" y1="553.73" x2="367.74" y2="698.386" gradientUnits="userSpaceOnUse"><stop stop-color="#A57ACF"/><stop offset=".005" stop-color="#A679CF"/><stop offset=".995" stop-color="#7E6EBD"/><stop offset="1" stop-color="#7D6DBC"/></linearGradient><linearGradient id="paint24_linear" x1="979.449" y1="561.383" x2="384.319" y2="699.322" gradientUnits="userSpaceOnUse"><stop stop-color="#A775D2"/><stop offset=".005" stop-color="#A775D2"/><stop offset=".995" stop-color="#786ABA"/><stop offset="1" stop-color="#7769B9"/></linearGradient><linearGradient id="paint25_linear" x1="967.086" y1="569.029" x2="401.037" y2="700.228" gradientUnits="userSpaceOnUse"><stop stop-color="#A971D4"/><stop offset=".005" stop-color="#AA71D5"/><stop offset=".995" stop-color="#7366B7"/><stop offset="1" stop-color="#7366B7"/></linearGradient><linearGradient id="paint26_linear" x1="954.771" y1="576.669" x2="417.5" y2="701.198" gradientUnits="userSpaceOnUse"><stop stop-color="#AC6DD7"/><stop offset=".005" stop-color="#AB6CD7"/><stop offset=".995" stop-color="#6F63B5"/><stop offset="1" stop-color="#6E62B4"/></linearGradient><linearGradient id="paint27_linear" x1="942.251" y1="584.394" x2="434.119" y2="702.169" gradientUnits="userSpaceOnUse"><stop stop-color="#B068DA"/><stop offset=".005" stop-color="#B068DA"/><stop offset=".995" stop-color="#6A5FB2"/><stop offset="1" stop-color="#695EB1"/></linearGradient><linearGradient id="paint28_linear" x1="930.08" y1="592.008" x2="450.428" y2="703.182" gradientUnits="userSpaceOnUse"><stop stop-color="#B564DD"/><stop offset=".005" stop-color="#B564DD"/><stop offset=".995" stop-color="#655BAF"/><stop offset="1" stop-color="#645AAE"/></linearGradient><linearGradient id="paint29_linear" x1="918.012" y1="599.65" x2="466.665" y2="704.263" gradientUnits="userSpaceOnUse"><stop stop-color="#B860DF"/><stop offset=".005" stop-color="#B95FDF"/><stop offset=".995" stop-color="#6057B2"/><stop offset="1" stop-color="#6057B2"/></linearGradient><linearGradient id="paint30_linear" x1="906.058" y1="607.22" x2="483.104" y2="705.252" gradientUnits="userSpaceOnUse"><stop stop-color="#BC5BE2"/><stop offset=".005" stop-color="#BC5BE2"/><stop offset=".995" stop-color="#5D54B6"/><stop offset="1" stop-color="#5C53B7"/></linearGradient><linearGradient id="paint31_linear" x1="894.292" y1="614.872" x2="498.859" y2="706.526" gradientUnits="userSpaceOnUse"><stop stop-color="#C157E5"/><stop offset=".005" stop-color="#C157E5"/><stop offset=".995" stop-color="#5950BA"/><stop offset="1" stop-color="#574FBB"/></linearGradient><linearGradient id="paint32_linear" x1="882.72" y1="622.358" x2="514.827" y2="707.628" gradientUnits="userSpaceOnUse"><stop stop-color="#C453E7"/><stop offset=".005" stop-color="#C453E8"/><stop offset=".995" stop-color="#544CBE"/><stop offset="1" stop-color="#534BBF"/></linearGradient><linearGradient id="paint33_linear" x1="871.471" y1="629.839" x2="530.089" y2="708.964" gradientUnits="userSpaceOnUse"><stop stop-color="#C84EEA"/><stop offset=".005" stop-color="#C84EEA"/><stop offset=".995" stop-color="#3E34C3"/><stop offset="1" stop-color="#4F47C4"/></linearGradient><linearGradient id="paint34_linear" x1="860.65" y1="637.166" x2="545.194" y2="710.283" gradientUnits="userSpaceOnUse"><stop stop-color="#CB4AED"/><stop offset=".005" stop-color="#CB4AED"/><stop offset=".995" stop-color="#4D45C7"/><stop offset="1" stop-color="#4C44C8"/></linearGradient><linearGradient id="paint35_linear" x1="850.569" y1="644.378" x2="559.575" y2="711.824" gradientUnits="userSpaceOnUse"><stop stop-color="#D046EF"/><stop offset=".005" stop-color="#D046F0"/><stop offset=".995" stop-color="#4942CB"/><stop offset="1" stop-color="#4740CC"/></linearGradient><linearGradient id="paint36_linear" x1="841.323" y1="651.41" x2="573.717" y2="713.436" gradientUnits="userSpaceOnUse"><stop stop-color="#D441F2"/><stop offset=".005" stop-color="#D441F2"/><stop offset=".995" stop-color="#443DD0"/><stop offset="1" stop-color="#3F37D1"/></linearGradient><linearGradient id="paint37_linear" x1="833.252" y1="658.201" x2="586.877" y2="715.305" gradientUnits="userSpaceOnUse"><stop stop-color="#D93DF5"/><stop offset=".005" stop-color="#D93DF5"/><stop offset=".995" stop-color="#4039D4"/><stop offset="1" stop-color="#3E38D5"/></linearGradient><linearGradient id="paint38_linear" x1="826.58" y1="664.744" x2="599.027" y2="717.486" gradientUnits="userSpaceOnUse"><stop stop-color="#DC39F8"/><stop offset=".005" stop-color="#DC39F8"/><stop offset=".995" stop-color="#3C36D8"/><stop offset="1" stop-color="#3A34D9"/></linearGradient><linearGradient id="paint39_linear" x1="820.933" y1="671.183" x2="610.35" y2="719.992" gradientUnits="userSpaceOnUse"><stop stop-color="#E034FA"/><stop offset=".005" stop-color="#E034FA"/><stop offset=".995" stop-color="#3832DD"/><stop offset="1" stop-color="#3731DE"/></linearGradient><linearGradient id="paint40_linear" x1="816.115" y1="678.768" x2="620.863" y2="724.024" gradientUnits="userSpaceOnUse"><stop offset=".005" stop-color="#E230FD"/><stop offset="1" stop-color="#332DE2"/></linearGradient></defs></svg>