<svg baseProfile="tiny" xmlns="http://www.w3.org/2000/svg" viewBox="0 0 74.4 74.2"><g fill="#4500E4"><circle cx="50.3" cy="47.2" r="4.3"/><circle cx="23.9" cy="27.1" r="4.3"/><path d="M74.2 37.1C74.2 16.6 57.6 0 37.1 0c-6.3 0-12.3 1.6-17.5 4.4v9c1.3-.4 2.8-.6 4.3-.6 7.9 0 14.3 6.4 14.3 14.3s-6.4 14.3-14.3 14.3S9.5 35 9.5 27.1V12.3C3.6 18.9 0 27.6 0 37.1c0 20.5 16.6 37.1 37.1 37.1 6.3 0 12.3-1.6 17.5-4.4v-9c-1.3.4-2.8.6-4.3.6C42.4 61.4 36 55 36 47.1s6.4-14.3 14.3-14.3 14.3 6.4 14.3 14.3v14.8c6-6.5 9.6-15.2 9.6-24.8z"/></g></svg>