<svg width="100" height="72" fill="none" xmlns="http://www.w3.org/2000/svg"><path d="M1.493 7.761a1.194 1.194 0 100-2.388 1.194 1.194 0 000 2.388zm14.925-1.194c0 .597-.597 1.194-1.194 1.194s-1.194-.597-1.194-1.194.597-1.194 1.194-1.194c.597.299 1.194.597 1.194 1.194zm14.031 0c0 .597-.597 1.194-1.194 1.194-.598 0-1.194-.597-1.194-1.194s.596-1.194 1.194-1.194c.597.299 1.194.597 1.194 1.194zm12.835 1.194a1.194 1.194 0 100-2.388 1.194 1.194 0 000 2.388zm13.731 0a1.194 1.194 0 100-2.388 1.194 1.194 0 000 2.388zM72.24 6.567c0 .597-.597 1.194-1.194 1.194s-1.194-.597-1.194-1.194.597-1.194 1.194-1.194c.597.299 1.194.597 1.194 1.194zm13.73 0c0 .597-.597 1.194-1.194 1.194s-1.194-.597-1.194-1.194.597-1.194 1.194-1.194c.896.299 1.194.597 1.194 1.194zm12.836 1.194a1.194 1.194 0 100-2.387 1.194 1.194 0 000 2.387zM1.493 20.597a1.194 1.194 0 100-2.388 1.194 1.194 0 000 2.388zm14.925-1.194c0 .597-.597 1.194-1.194 1.194S14.03 20 14.03 19.403s.597-1.194 1.194-1.194 1.194.597 1.194 1.194zm14.031 0c0 .597-.597 1.194-1.194 1.194-.598 0-1.194-.597-1.194-1.194s.596-1.194 1.194-1.194c.597 0 1.194.597 1.194 1.194zm12.835 1.194a1.194 1.194 0 100-2.388 1.194 1.194 0 000 2.388zm13.731 0a1.194 1.194 0 100-2.388 1.194 1.194 0 000 2.388zm15.225-1.194c0 .597-.597 1.194-1.194 1.194s-1.194-.597-1.194-1.194.597-1.194 1.194-1.194 1.194.597 1.194 1.194zm13.73 0c0 .597-.597 1.194-1.194 1.194s-1.194-.597-1.194-1.194.597-1.194 1.194-1.194c.896 0 1.194.597 1.194 1.194zm12.836 1.194a1.194 1.194 0 100-2.387 1.194 1.194 0 000 2.387zM1.493 33.134a1.194 1.194 0 100-2.388 1.194 1.194 0 000 2.388zm14.925-1.194c0 .597-.597 1.194-1.194 1.194s-1.194-.597-1.194-1.194.597-1.194 1.194-1.194c.597.299 1.194.597 1.194 1.194zm14.031 0c0 .597-.597 1.194-1.194 1.194-.598 0-1.194-.597-1.194-1.194s.596-1.194 1.194-1.194c.597.299 1.194.597 1.194 1.194zm12.835 1.194a1.194 1.194 0 100-2.388 1.194 1.194 0 000 2.388zm13.731 0a1.194 1.194 0 100-2.388 1.194 1.194 0 000 2.388zM72.24 31.94c0 .597-.597 1.194-1.194 1.194s-1.194-.597-1.194-1.194.597-1.194 1.194-1.194c.597.299 1.194.597 1.194 1.194zm13.73 0c0 .597-.597 1.194-1.194 1.194s-1.194-.597-1.194-1.194.597-1.194 1.194-1.194c.896.299 1.194.597 1.194 1.194zm12.836 1.194a1.194 1.194 0 100-2.387 1.194 1.194 0 000 2.387zM1.493 45.97a1.194 1.194 0 100-2.388 1.194 1.194 0 000 2.388zm14.925-1.194c0 .597-.597 1.194-1.194 1.194s-1.194-.597-1.194-1.194.597-1.194 1.194-1.194 1.194.597 1.194 1.194zm14.031 0c0 .597-.597 1.194-1.194 1.194-.598 0-1.194-.597-1.194-1.194s.596-1.194 1.194-1.194c.597 0 1.194.597 1.194 1.194zm12.835 1.194a1.194 1.194 0 100-2.388 1.194 1.194 0 000 2.388zm13.731 0a1.194 1.194 0 100-2.388 1.194 1.194 0 000 2.388zm15.225-1.194c0 .597-.597 1.194-1.194 1.194s-1.194-.597-1.194-1.194.597-1.194 1.194-1.194 1.194.597 1.194 1.194zm13.73 0c0 .597-.597 1.194-1.194 1.194s-1.194-.597-1.194-1.194.597-1.194 1.194-1.194c.896 0 1.194.597 1.194 1.194zm12.836 1.194a1.194 1.194 0 100-2.387 1.194 1.194 0 000 2.387zM1.493 58.507a1.194 1.194 0 100-2.388 1.194 1.194 0 000 2.388zm14.925-1.194c0 .597-.597 1.194-1.194 1.194s-1.194-.597-1.194-1.194.597-1.194 1.194-1.194c.597.299 1.194.597 1.194 1.194zm14.031 0c0 .597-.597 1.194-1.194 1.194-.598 0-1.194-.597-1.194-1.194s.596-1.194 1.194-1.194c.597.299 1.194.597 1.194 1.194zm12.835 1.194a1.194 1.194 0 100-2.388 1.194 1.194 0 000 2.388zm13.731 0a1.194 1.194 0 100-2.388 1.194 1.194 0 000 2.388zm15.225-1.194c0 .597-.597 1.194-1.194 1.194s-1.194-.597-1.194-1.194.597-1.194 1.194-1.194c.597.299 1.194.597 1.194 1.194zm13.73 0c0 .597-.597 1.194-1.194 1.194s-1.194-.597-1.194-1.194.597-1.194 1.194-1.194c.896.299 1.194.597 1.194 1.194zm12.836 1.194a1.194 1.194 0 100-2.387 1.194 1.194 0 000 2.387zM2.388 70.15c0 .596-.597 1.193-1.194 1.193S0 70.746 0 70.15s.597-1.194 1.194-1.194c.896 0 1.194.597 1.194 1.194zm14.03 0c0 .596-.597 1.193-1.194 1.193s-1.194-.597-1.194-1.194.597-1.194 1.194-1.194 1.194.597 1.194 1.194zm14.03 0c0 .596-.597 1.193-1.194 1.193s-1.194-.597-1.194-1.194.597-1.194 1.194-1.194 1.194.597 1.194 1.194zm13.731 0c0 .596-.597 1.193-1.194 1.193s-1.194-.597-1.194-1.194.597-1.194 1.194-1.194c.895 0 1.194.597 1.194 1.194zm14.031 0c0 .596-.598 1.193-1.195 1.193-.597 0-1.194-.597-1.194-1.194s.597-1.194 1.194-1.194 1.194.597 1.194 1.194zm14.029 0c0 .596-.597 1.193-1.194 1.193s-1.194-.597-1.194-1.194.597-1.194 1.194-1.194 1.194.597 1.194 1.194zm13.731 0c0 .596-.597 1.193-1.194 1.193s-1.194-.597-1.194-1.194.597-1.194 1.194-1.194c.896 0 1.194.597 1.194 1.194zm14.03 0c0 .596-.597 1.193-1.194 1.193s-1.194-.597-1.194-1.194.597-1.194 1.194-1.194c.896 0 1.194.597 1.194 1.194z" fill="#fff"/></svg>