<svg width="174" height="46" fill="none" xmlns="http://www.w3.org/2000/svg"><path d="M31.1 31.927a2.662 2.662 0 002.658-2.665 2.662 2.662 0 00-2.659-2.666 2.662 2.662 0 00-2.658 2.666 2.662 2.662 0 002.659 2.665zM14.777 19.466a2.662 2.662 0 002.659-2.666 2.662 2.662 0 00-2.66-2.665 2.662 2.662 0 00-2.658 2.665 2.662 2.662 0 002.659 2.666z" fill="#4500E4"/><path d="M45.876 23c0-12.709-10.263-23-22.938-23-3.895 0-7.605.992-10.82 2.728v5.58c.804-.249 1.732-.373 2.659-.373 4.884 0 8.841 3.968 8.841 8.865 0 4.898-3.957 8.866-8.841 8.866-4.885 0-8.903-3.968-8.903-8.866V7.625C2.226 11.717 0 17.11 0 23c0 12.709 10.263 23 22.938 23 3.895 0 7.605-.992 10.82-2.728v-5.58c-.804.249-1.731.373-2.659.373-4.884 0-8.84-3.968-8.84-8.865 0-4.898 3.956-8.866 8.84-8.866 4.885 0 8.842 3.968 8.842 8.866v9.175c3.71-4.03 5.935-9.424 5.935-15.375zm22.796-1.164c1.195.28 2.119.859 2.772 1.736.672.859 1.008 1.857 1.008 2.996 0 1.736-.579 3.08-1.736 4.032-1.139.933-2.781 1.4-4.928 1.4H55.4V12.176h10.108c2.016 0 3.603.439 4.76 1.316 1.157.877 1.736 2.156 1.736 3.836 0 1.157-.308 2.137-.924 2.94-.597.784-1.4 1.307-2.408 1.568zm-7.056-1.932h2.408c.56 0 .97-.112 1.232-.336.28-.224.42-.57.42-1.036 0-.485-.14-.84-.42-1.064-.261-.243-.672-.364-1.232-.364h-2.408v2.8zm2.828 7.112c.56 0 .97-.103 1.232-.308.28-.224.42-.579.42-1.064 0-.952-.55-1.428-1.652-1.428h-2.828v2.8h2.828zm16.9-11.004c1.027 0 1.914.215 2.66.644.747.41 1.317.98 1.709 1.708v-2.156H91.9V31.72c0 1.475-.271 2.819-.812 4.032-.542 1.213-1.419 2.184-2.632 2.912-1.195.728-2.735 1.092-4.62 1.092-2.539 0-4.555-.597-6.048-1.792-1.475-1.176-2.315-2.781-2.52-4.816h6.104c.168.821.84 1.232 2.016 1.232.728 0 1.297-.187 1.708-.56.41-.373.616-1.073.616-2.1v-1.876a4.362 4.362 0 01-1.708 1.736c-.747.41-1.634.616-2.66.616-1.232 0-2.343-.317-3.332-.952-.99-.653-1.774-1.587-2.352-2.8-.56-1.232-.84-2.679-.84-4.34s.28-3.099.84-4.312c.578-1.232 1.362-2.165 2.352-2.8.989-.653 2.1-.98 3.332-.98zm2.073 5.432c-.672 0-1.223.233-1.652.7-.43.467-.644 1.12-.644 1.96 0 .84.214 1.493.644 1.96.429.467.98.7 1.652.7.672 0 1.222-.233 1.652-.7.429-.467.644-1.12.644-1.96 0-.84-.215-1.493-.644-1.96-.43-.467-.98-.7-1.652-.7z" fill="#4500E4"/><path d="M118.968 12.26V32h-5.46V20.8L109.84 32h-4.732l-3.668-11.2V32h-5.516V12.26h6.748l4.872 12.824 4.732-12.824h6.692zm20.01 4.032V32h-5.488v-2.632c-.448.84-1.102 1.512-1.96 2.016-.859.504-1.867.756-3.024.756-1.811 0-3.239-.597-4.284-1.792-1.027-1.213-1.54-2.865-1.54-4.956v-9.1h5.488v8.428c0 .896.233 1.605.7 2.128.485.504 1.129.756 1.932.756.821 0 1.474-.261 1.96-.784.485-.523.728-1.26.728-2.212v-8.316h5.488zm9.004 11.144h6.888V32h-12.936v-4.34l6.384-6.804h-6.272v-4.564h12.544v4.312l-6.608 6.832zm24.917-3.584c0 .392-.047.821-.14 1.288h-10.388c.093 1.773.868 2.66 2.324 2.66.541 0 .989-.13 1.344-.392.355-.261.597-.607.728-1.036h5.824a6.759 6.759 0 01-1.372 2.996c-.709.877-1.605 1.568-2.688 2.072-1.083.504-2.268.756-3.556.756-1.568 0-2.959-.317-4.172-.952a6.969 6.969 0 01-2.8-2.8c-.672-1.232-1.008-2.67-1.008-4.312 0-1.643.336-3.07 1.008-4.284a6.75 6.75 0 012.828-2.772c1.213-.653 2.595-.98 4.144-.98 1.568 0 2.949.317 4.144.952a6.698 6.698 0 012.772 2.716c.672 1.176 1.008 2.539 1.008 4.088zm-5.6-1.008c.019-.803-.196-1.41-.644-1.82-.448-.41-1.008-.616-1.68-.616-.728 0-1.325.205-1.792.616-.448.41-.709 1.017-.784 1.82h4.9z" fill="#000"/></svg>