<svg xmlns="http://www.w3.org/2000/svg" width="512" height="512" viewBox="0 0 64 64"><g fill="#1D1D1B"><path d="M64 41.733a2.434 2.434 0 00-2.435-2.435 2.434 2.434 0 00-2.436 2.435v14.115H4.946V41.733a2.435 2.435 0 00-2.437-2.435 2.434 2.434 0 00-2.435 2.435v15.535c0 .18.067.338.103.507-.035.169-.103.328-.103.507a2.435 2.435 0 002.435 2.436h59.056A2.435 2.435 0 0064 58.282c0-.179-.064-.338-.102-.507.038-.169.102-.327.102-.506V41.733z" data-original="#000000" class="active-path" data-old_color="#000000" fill="#FFF"/><path d="M32.19 2.967a2.437 2.437 0 00-2.437 2.436v35.576L19.148 30.372a2.434 2.434 0 10-3.443 3.444L30.469 48.58a2.434 2.434 0 003.444 0l14.764-14.764a2.435 2.435 0 00-3.443-3.444L34.625 40.979V5.403a2.435 2.435 0 00-2.435-2.436z" data-original="#000000" class="active-path" data-old_color="#000000" fill="#FFF"/></g></svg>