<svg xmlns="http://www.w3.org/2000/svg" viewBox="0 0 77.60759 77.60759"><defs><style>.a{fill:#fff;}</style></defs><title>Ресурс 163</title><path class="a" d="M75.70321,6.623,70.98457,1.90438a6.50194,6.50194,0,0,0-9.19512,0L38.80382,24.89,15.81818,1.90437a6.50193,6.50193,0,0,0-9.19511,0L1.90439,6.623a6.50194,6.50194,0,0,0,0,9.19513L24.89,38.80377,1.90437,61.7894a6.50194,6.50194,0,0,0,0,9.19512l4.7187,4.7187a6.50194,6.50194,0,0,0,9.19512,0L38.80382,52.71759,61.78944,75.70321a6.50193,6.50193,0,0,0,9.19513,0l4.71866-4.71868a6.50193,6.50193,0,0,0,0-9.19511L52.71758,38.80377,75.70321,15.81814A6.50194,6.50194,0,0,0,75.70321,6.623Z"/></svg>