<svg width="8" height="7" fill="none" xmlns="http://www.w3.org/2000/svg"><g filter="url(#filter0_i)" fill="#3A55EE"><path d="M.734 7A.73.73 0 010 6.271V3.53c0-.4.325-.729.72-.729h.014c.396 0 .72.329.72.729v2.757A.725.725 0 01.735 7zm1.461-3.797c0-.053.027-.12.067-.159.239-.239 1.05-1.075 1.276-1.5.265-.491.85-1.168 1.023-1.407.173-.252.744-.12.904.106.16.212.28.465.213.73-.067.266-.505 1.328-.505 1.328h2.086s.612.013.705.624c.093.61.053.584-.691 2.283-.745 1.699-.665 1.473-.944 1.672-.16.12-.452.12-.452.12H3.418s-.319.013-.651-.279a9.807 9.807 0 01-.492-.464.376.376 0 01-.093-.226V3.203h.013z"/></g><defs><filter id="filter0_i" x="0" y="0" width="10" height="9" filterUnits="userSpaceOnUse" color-interpolation-filters="sRGB"><feFlood flood-opacity="0" result="BackgroundImageFix"/><feBlend in="SourceGraphic" in2="BackgroundImageFix" result="shape"/><feColorMatrix in="SourceAlpha" values="0 0 0 0 0 0 0 0 0 0 0 0 0 0 0 0 0 0 127 0" result="hardAlpha"/><feOffset dx="2" dy="2"/><feGaussianBlur stdDeviation="2"/><feComposite in2="hardAlpha" operator="arithmetic" k2="-1" k3="1"/><feColorMatrix values="0 0 0 0 0.0600347 0 0 0 0 0.129865 0 0 0 0 0.758333 0 0 0 0.61 0"/><feBlend in2="shape" result="effect1_innerShadow"/></filter></defs></svg>