<svg width="16" height="15" fill="none" xmlns="http://www.w3.org/2000/svg"><path d="M5.555 3.494c-3.06 0-5.553 2.248-5.553 5.01 0 .976.298 1.896.894 2.709-.108 1.219-.406 2.113-.84 2.546-.054.054-.08.135-.026.216.027.055.108.109.162.109h.027c.081 0 1.815-.271 3.088-.975.704.298 1.49.433 2.275.433 3.06 0 5.552-2.248 5.552-5.01 0-2.763-2.519-5.038-5.58-5.038zm-2.6 5.742a.728.728 0 01-.732-.732c0-.406.325-.73.732-.73.406 0 .73.324.73.73a.728.728 0 01-.73.732zm2.6 0a.728.728 0 01-.732-.732c0-.406.325-.73.732-.73.406 0 .731.324.731.73a.728.728 0 01-.731.732zm2.6 0a.728.728 0 01-.731-.732c0-.406.325-.73.73-.73.407 0 .732.324.732.73a.728.728 0 01-.731.732z" fill="#686868"/><path d="M15.25 6.392a3.78 3.78 0 00.732-2.248C15.982 1.842 13.924 0 11.378 0 9.21 0 7.424 1.327 6.908 3.142c2.682.46 4.686 2.573 4.686 5.119v.054a5.17 5.17 0 001.68-.352c1.056.596 2.492.812 2.546.812h.027a.149.149 0 00.135-.08.167.167 0 00-.027-.19c-.352-.353-.596-1.084-.704-2.113z" fill="#686868"/></svg>