<svg width="14" height="12" fill="none" xmlns="http://www.w3.org/2000/svg"><g filter="url(#filter0_i)" fill="#DBDBDB"><path d="M4.86 2.977c-2.678 0-4.858 1.915-4.858 4.27 0 .83.26 1.615.782 2.307-.095 1.038-.355 1.8-.734 2.17-.048.045-.072.114-.024.184.024.046.095.092.142.092h.024c.07 0 1.588-.23 2.701-.83a5.275 5.275 0 001.991.369c2.678 0 4.858-1.916 4.858-4.27 0-2.354-2.204-4.292-4.882-4.292zM2.585 7.869a.629.629 0 01-.64-.623.63.63 0 01.64-.623c.356 0 .64.277.64.623a.629.629 0 01-.64.623zm2.275 0a.629.629 0 01-.64-.623.63.63 0 01.64-.623c.356 0 .64.277.64.623a.629.629 0 01-.64.623zm2.275 0a.629.629 0 01-.64-.623.63.63 0 01.64-.623c.356 0 .64.277.64.623a.629.629 0 01-.64.623z"/><path d="M13.345 5.446c.426-.577.64-1.223.64-1.915C13.984 1.569 12.182 0 9.954 0c-1.895 0-3.46 1.13-3.91 2.677 2.347.392 4.1 2.192 4.1 4.361v.047a4.63 4.63 0 001.47-.3c.924.507 2.18.692 2.227.692h.024a.13.13 0 00.118-.07.14.14 0 00-.023-.16c-.308-.3-.522-.924-.616-1.8z"/></g><defs><filter id="filter0_i" x="0" y="0" width="16" height="14" filterUnits="userSpaceOnUse" color-interpolation-filters="sRGB"><feFlood flood-opacity="0" result="BackgroundImageFix"/><feBlend in="SourceGraphic" in2="BackgroundImageFix" result="shape"/><feColorMatrix in="SourceAlpha" values="0 0 0 0 0 0 0 0 0 0 0 0 0 0 0 0 0 0 127 0" result="hardAlpha"/><feOffset dx="2" dy="2"/><feGaussianBlur stdDeviation="2"/><feComposite in2="hardAlpha" operator="arithmetic" k2="-1" k3="1"/><feColorMatrix values="0 0 0 0 0.7125 0 0 0 0 0.7125 0 0 0 0 0.7125 0 0 0 0.61 0"/><feBlend in2="shape" result="effect1_innerShadow"/></filter></defs></svg>