<svg width="16" height="12" fill="none" xmlns="http://www.w3.org/2000/svg"><path d="M5.463 5.676c1.54 0 2.788-1.21 2.788-2.703C8.25 1.48 7.003.27 5.463.27c-1.54 0-2.787 1.21-2.787 2.703 0 1.493 1.248 2.703 2.787 2.703zm5.91.973c1.324 0 2.397-1.017 2.397-2.27 0-1.254-1.073-2.27-2.397-2.27-1.324 0-2.397 1.016-2.397 2.27 0 1.253 1.073 2.27 2.397 2.27zm1.394.432c-.67.433-1.561.54-2.398.216-.167-.054-.334-.162-.446-.216-1.784.378-3.066 1.892-3.066 3.73v1.08h9.032v-1.08c0-1.892-1.338-3.406-3.122-3.73z" fill="#686868"/><path d="M8.808 6.865a5.834 5.834 0 00-1.672-.757 3.35 3.35 0 01-2.788.27c-.223-.054-.39-.162-.557-.27-2.063.433-3.624 2.27-3.624 4.378v1.298h6.077v-1.19c-.056-1.621 1.003-3.08 2.564-3.73z" fill="#686868"/></svg>