<svg width="18" height="16" fill="none" xmlns="http://www.w3.org/2000/svg"><path d="M9.181 3.906L.487.03a.342.342 0 00-.445.156A.36.36 0 000 .354v.029a.36.36 0 00.048.18l3.497 6.053a.35.35 0 00.18.152l3.106 1.17a.08.08 0 01.038.03.083.083 0 01-.038.122L3.724 9.26a.35.35 0 00-.179.152L.048 15.465a.36.36 0 00.11.476.343.343 0 00.329.029l8.694-3.877 8.674-3.867a.25.25 0 000-.453L9.18 3.906z" fill="url(#paint0_linear)"/><defs><linearGradient id="paint0_linear" x1="4.5" y1="3.498" x2="6" y2="12.498" gradientUnits="userSpaceOnUse"><stop stop-color="#3F44E6"/><stop offset="1" stop-color="#5C14C0"/></linearGradient></defs></svg>