<svg width="15" height="15" fill="none" xmlns="http://www.w3.org/2000/svg"><path d="M10.64 9.911a.5.5 0 10-.709.705l.71-.705zm3.005 4.441a.5.5 0 10.71-.704l-.71.704zM11.5 6.37c0 2.678-2.227 4.869-5 4.869v1c3.302 0 6-2.616 6-5.869h-1zm-5 4.869c-2.773 0-5-2.191-5-4.869h-1c0 3.253 2.698 5.869 6 5.869v-1zm-5-4.869c0-2.678 2.227-4.869 5-4.869v-1C3.198.5.5 3.116.5 6.369h1zm5-4.869c2.773 0 5 2.191 5 4.869h1C12.5 3.116 9.802.5 6.5.5v1zm3.431 9.116l3.714 3.736.71-.704L10.64 9.91l-.709.705z" fill="#BEBFC1"/></svg>