<svg baseProfile="tiny" xmlns="http://www.w3.org/2000/svg" viewBox="0 0 60 60"><path d="M21 15.9C9.7 15.9.5 24.2.5 34.4c0 3.6 1.1 7 3.3 10-.4 4.5-1.5 7.8-3.1 9.4-.2.2-.3.5-.1.8.1.2.4.4.6.4h.1c.3 0 6.7-1 11.4-3.6 2.6 1.1 5.5 1.6 8.4 1.6 11.3 0 20.5-8.3 20.5-18.5S32.3 15.9 21 15.9zm-9.6 21.2c-1.5 0-2.7-1.2-2.7-2.7s1.2-2.7 2.7-2.7c1.5 0 2.7 1.2 2.7 2.7s-1.2 2.7-2.7 2.7zm9.6 0c-1.5 0-2.7-1.2-2.7-2.7s1.2-2.7 2.7-2.7c1.5 0 2.7 1.2 2.7 2.7s-1.2 2.7-2.7 2.7zm9.6 0c-1.5 0-2.7-1.2-2.7-2.7s1.2-2.7 2.7-2.7 2.7 1.2 2.7 2.7-1.2 2.7-2.7 2.7z"/><path d="M56.8 26.6c1.8-2.5 2.7-5.3 2.7-8.3 0-8.5-7.6-15.3-17-15.3-8 0-14.6 4.9-16.5 11.6 9.9 1.7 17.3 9.5 17.3 18.9v.2c2.1-.1 4.2-.5 6.2-1.3 3.9 2.2 9.2 3 9.4 3h.1c.2 0 .4-.1.5-.3.1-.2.1-.5-.1-.7-1.3-1.3-2.2-4-2.6-7.8z"/></svg>